<?xml version="1.0" encoding="UTF-8"?><svg id="uuid-55de5643-9a5a-44f2-abe2-f0174161d14f" xmlns="http://www.w3.org/2000/svg" width="398.4095" height="619.70996" viewBox="0 0 398.4095 619.70996"><polygon points="263.5965 250.24267 256.28538 173.47593 167.33345 183.22409 167.33345 249.02415 263.5965 250.24267" fill="#ffb6b6"/><polygon points="297.10141 562.78998 297.10141 619.70996 295.18143 618.83997 63.15146 618.83997 69.85141 577.45001 70.98142 570.46997 71.87143 565 114.13144 564.58997 114.17142 564.57996 131.04142 564.41998 135.33146 564.38 138.68143 564.33997 189.3414 563.84998 258.40146 563.16998 297.10141 562.78998" fill="#2f2e41"/><polygon points="166.11493 230.74635 262.37798 239.27599 340.97249 276.44084 303.19839 465.31138 297.10579 581.07075 68.02409 577.41519 94.83153 442.15951 82.64633 258.16305 166.11493 230.74635" fill="#e6e6e6"/><path d="M114.9371,430.58358s1.21852-9.74816,6.0926-7.31112,20.71483,24.37039,15.84076,28.02595-14.62224-2.43704-15.84076-4.87408-6.0926-15.84076-6.0926-15.84076Z" fill="#6c63ff"/><path d="M283.63144,613.69l-3.85004,5.14996h-99.06c-9.03998-8.96997-23.77997-21.19-39.71997-33.67999-2.16003-1.70996-4.34998-3.40997-6.54999-5.10999-.69-.53998-1.38-1.07001-2.07001-1.59998l-.01001-.01001c-3.60999-2.79004-7.23999-5.57001-10.84003-8.29999-2.46997-1.88-4.92999-3.74005-7.35999-5.56006-.01001-.00995-.01996-.01996-.03998-.02997-.78003-.59003-1.57001-1.17999-2.35004-1.76001-14.31995-10.73999-27.35999-20.21002-35.65997-26.21997h-.01001c-2.42999-1.75-4.45996-3.20001-5.97998-4.30005-2.14001-1.53998-3.33002-2.37994-3.33002-2.37994l2.45001-1.91003c.02002,.01001,.02002,0,.02002,0l10-7.72998,.09998-.08002,6.47998-5.01001,39.67004-30.69-1.65002-1.46997,32.89001,11.57996,36.25,20.93005,31.88,18.39996,10,5.78003c4.82001,2.77997,9.22998,6.15997,13.13995,10.03998,2.82001,2.79999,5.39001,5.85999,7.64001,9.14001,.89001,1.27002,1.72003,2.58002,2.51001,3.91998l.22003,.38,10.25995,17.45001,14.21002,32.38,.76001,.69Z" fill="#6c63ff"/><path d="M232.31712,618.84486h62.86339s-11.55154-5.15439-11.55154-5.15439l-7.31112-3.26562c-15.45082-6.89679-32.91223-2.96099-44.00073,8.42001Z" fill="#ffb6b6"/><circle cx="185.00198" cy="141.18516" r="81.64082" fill="#ffb6b6"/><path d="M125.19077,407.63867c.45215,9.09863,30.26416,34.13379,33.62549,36.92871l35.97559-27.51172c3.40918-2.60645,4.87988-6.94727,3.74658-11.05762-4.31445-15.65234-19.1499-26.66113-27.60938-31.83008-4.04053-2.46875-9.25391-1.87402-12.67969,1.44434l-33.05859,32.02637Z" fill="#6c63ff"/><path d="M135.44721,411.96683c-4.05662-4.04116-10.22867-5.21942-15.39484-2.75004-4.45673,2.13027-8.18198,5.49338-5.11527,10.40011,3.90534,6.24854,14.81993,19.00567,22.15335,27.36004,5.41051,6.16376,15.20444,6.40801,20.48175,.12983,1.89799-2.25795,2.75476-4.94726,1.23161-7.99356-3.33808-6.67616-15.82067-19.63916-23.3566-27.14638Z" fill="#3f3d56"/><path d="M253.8292,462.30115l-42.55945-16.5976c-6.8316-7.35724-15.32593-12.97137-24.77216-16.37286-23.52631-8.83783-47.14734-3.86792-52.77026,11.09888-5.62292,14.96686,8.8844,34.2608,32.4035,43.09235,9.35248,3.65997,19.44568,5.02625,29.43475,3.98468l40.26416,18.09656,18.01862-43.33807-.01917,.03607Z" fill="#ffb6b6"/><path d="M388.87143,393l-75,5,10.65106,82.54285-70.67413-18.27777-18.01862,43.33807c5.49701,2.64209,16.38599,7.74731,30.06799,13.51392l25.888,10.26276c26.73639,9.88672,57.08911,18.73041,79.04047,18.18164,48.74078-1.21857,18.04523-154.56146,18.04523-154.56146Z" fill="#e6e6e6"/><path d="M328.17804,274.61306s25.58891,0,41.42967,25.58891c15.84076,25.58891,21.93335,99.91861,21.93335,99.91861l-86.51489,7.31112,23.15187-132.81864Z" fill="#e6e6e6"/><path d="M100.31487,258.77231s-37.77411-7.31112-53.61486,28.02595c-15.84076,35.33707-25.58891,86.51489-25.58891,86.51489l85.29637,3.65556-6.0926-118.19641Z" fill="#e6e6e6"/><path d="M195.05899,1.10923s70.57916-3.35613,90.0052,54.30897c19.42605,57.66509,64.34193,122.84976,64.34193,122.84976,0,0,16.51447,8.35372,4.52492,33.70188-11.98955,25.34816,21.71234,20.82324,21.71234,20.82324,0,0,7.02737,60.62797-42.69313,41.15427-49.7205-19.4737-64.54714,24.801-64.54714,24.801,0,0-66.07377,2.3803-55.7171-42.03608s-8.96312-105.43395-89.83176-130.36934c-80.86864-24.93538,13.03256-93.55066,13.03256-93.55066,0,0,12.44998-39.87557,59.17219-31.68305Z" fill="#2f2e41"/><path d="M200.29142,618.83997H125.21146l-15.05005-14.26996-.03998,.02997,.25-.25,24.08002-24.29999,1.52997-1.54999,7-7.04999,.17999-.19,2.89001,3.02997,4.22998,4.44,.22003,.22998,23.12,24.24005c9.65002,2.79999,18.47998,7.87994,25.76001,14.78998,.31,.27997,.60999,.57001,.90997,.84998Z" fill="#ffb6b6"/><path d="M192.82673,489.73988c-8.06116-4.03612-19.73621,2.95977-26.0809,15.63081-2.60389,5.02677-3.96608,10.60407-3.9726,16.2652l-.31029,.63948-16.11314,27.87609-6.92199-12.74249-23.68694,17.81201s-1.97404,10.84283,24.68682,27.45908c5.33688,3.32617,10.27922,3.44404,14.77316,1.51399l14.32628-14.129c8.5368-13.47226,13.63241-31.26635,14.32399-33.76797l1.43704-3.38777c4.53095-3.39698,8.18233-7.82989,10.64835-12.92768,6.34412-12.66565,4.95143-26.20564-3.10978-30.24175Z" fill="#ffb6b6"/><path d="M140.52601,496.38364c2.43704,0-38.99263,45.08523-38.99263,45.08523l35.90795,27.9348,12.83283-52.3052-9.74816-20.71483Z" fill="#6c63ff"/><path d="M150.84684,578.73114l-12.78226-11.83178-4.44755-4.10641-17.81475-16.48661-9.57762-9.96748-13.62304-14.15919-6.75057-7.01869-4.55725-4.72786-4.1308-4.30134,1.66937-17.32739,3.44843-35.70261,4.42323-45.8529,3.44836-35.7392,.41433-4.28914-14.69527-21.22055-55,27-14.65062,109.22444-2.48583,11.77087v.00002c-2.05896,9.73879,1.35264,19.82569,8.90039,26.31529l50.51464,43.43275,6.48253,5.56864,9.62626,8.28592,31.6328,27.19737,39.95523-26.06415Z" fill="#e6e6e6"/><circle cx="66.19632" cy="465.92064" r="62.1445" fill="#ffb6b6"/><path d="M92.86054,476.05835l1.05061-19.01178-8.52964-14.62224s-2.43704-49.95931-21.93335-47.52227C43.95184,397.3391,1.30366,432.67617,.08514,446.07989c-1.21852,13.40372,10.7863,70.92011,26.80743,70.67414,11.55853-.17746,8.97886,27.24597,65.97886,6.24597,6.46799-2.38294-18.4566-17.21265-14.80104-25.74229,3.65556-8.52964,14.79014-21.19936,14.79014-21.19936Z" fill="#2f2e41"/></svg>