<?xml version="1.0" encoding="UTF-8"?><svg id="uuid-b8023dba-2281-441d-8d66-e37acbdc3b90" xmlns="http://www.w3.org/2000/svg" width="691.08839" height="756.35742" viewBox="0 0 691.08839 756.35742"><circle cx="179.10794" cy="181.97066" r="143.89207" fill="#ff6884"/><path d="M394.07971,55.60182L116.93066,208.26465c-32.01562,41.04785,576.32227,43.58545,571.30177,.15088L419.48215,55.7528c-7.64948-4.34526-17.67978-4.40488-25.40244-.15098Z" fill="#6c63ff"/><path d="M394.07971,55.60182L116.93066,208.26465c-32.01562,41.04785,576.32227,43.58545,571.30177,.15088L419.48215,55.7528c-7.64948-4.34526-17.67978-4.40488-25.40244-.15098Z" isolation="isolate" opacity=".2"/><path d="M687.08313,756.35742l-70.49878-1.50256H133.16432L0,751.84973c441.47836-104.33716,305.73724-95.35333,687.08313,4.50769Z" fill="#f2f2f2" isolation="isolate" opacity=".8"/><path d="M622.1795,751.84973l-5.59515,3.00513H133.16432c330.45421-68.21252,132.33598-62.20673,489.01518-3.00513Z" fill="#e6e6e6"/><path d="M388.59668,42.85742h20.80664l-7.0166-39.54785c-.43359-2.44336-2.09473-3.30957-3.38672-3.30957s-2.95312,.86621-3.38672,3.30957l-7.0166,39.54785Z" fill="#3f3d56"/><rect x="386.62415" y="173.34387" width="22.94006" height="559.51398" fill="#3f3d56"/><path d="M398.15976,260.68814c-9.78711,0-18.9874-3.78983-25.94308-10.69524l-57.89658-57.48132,4.72964-4.7646,57.89658,57.48132c5.75687,5.71535,13.3562,8.8353,21.50742,8.74458,8.11185-.07651,15.68933-3.32539,21.33804-9.14783l55.32413-57.03328,4.81924,4.675-55.32413,57.03328c-6.90759,7.1207-16.17453,11.09302-26.0939,11.18701-.11911,.0011-.23932,.0011-.35736,.0011v-.00003Z" fill="#3f3d56"/><path d="M406.18164,216.80469c-28.48828,0-57.20117-.09766-85.07031-.29492-59.0459-.41992-109.45801-1.24902-145.78516-2.39941-61.91895-1.95996-62.57812-4.1875-62.86035-5.1377-.06445-.21973-.08691-.64648,.49609-1.03027L389.35059,26.18359c6.64551-4.38184,15.19824-4.32227,21.78613,.15625l279.43066,181.75196c.58301,.39551,.55371,.82324,.48535,1.04297-.34863,1.11719-1.40723,4.5166-124.09766,6.51367-46.68066,.75977-103.25586,1.15625-160.77344,1.15625Z" fill="#6c63ff"/><g><path d="M459.39431,486.49445l-35.02914,.03819c-3.92194,8.71718,1.43729,18.91237,8.29044,25.57607,6.85315,6.6637,15.44553,11.77583,20.50586,19.88533,11.22882,17.99493,.64725,41.65913,4.35623,62.54329,4.99432,28.12152,34.47626,45.81927,43.45404,72.9332,5.07867,15.33826,2.77008,32.94324-6.09158,46.45343-1.63593,2.49405-3.52509,4.95624-4.09729,7.88358-.77814,3.98077,1.31693,8.35226,4.90726,10.23944s8.37903,1.134,11.21671-1.76422c-2.7713,3.1492-1.86273,8.46561,1.24811,11.27991,3.11084,2.8143,7.74503,3.41382,11.84946,2.54712,13.30072-2.80862,19.99619-18.173,20.53418-31.75641,.53799-13.58337-2.87061-27.34625-.21091-40.67758,1.69638,19.1326,23.34373,31.28271,25.04012,50.41531,.31438,3.5455-19.27963,14.21005-17.45627,17.26697,4.60954,7.72803,15.59543,7.75443,24.54601,6.82846,15.4088-1.59412,32.52119-4.07745,42.18654-16.18335,6.51184-8.1561,8.19917-19.13361,8.41344-29.56818,.55937-27.24185-7.55603-54.5968-22.88107-77.12622-20.39651-29.98505-52.82098-51.23624-68.83255-83.77469-5.44177-11.05872-8.77225-23.05026-14.0668-34.18022-5.29456-11.12997-13.08334-21.77951-24.35104-26.77426-11.26767-4.99475-26.43762-2.53131-32.93991,7.93906" fill="#3f3d56"/><path d="M568.0114,725.8775c-.69751,0-1.38086-.14893-2.02368-.44873-.50073-.23291-.71729-.82813-.48413-1.32861s.82739-.71826,1.32886-.48389c1.10327,.51318,2.16553,.17676,2.86206-.19727,1.43018-.7666,2.55054-2.3374,2.78833-3.90869,.45972-3.03564-1.06177-6.1377-2.40405-8.87451-3.91455-7.979-7.78493-16.5249-8.36597-25.55518-.65504-10.18213,3.54808-19.6665,10.70824-24.1626,5.32251-3.34229,12.35913-4.21631,19.81396-2.46436,6.38599,1.50195,12.27002,4.65186,18.23633,8.02295,.48071,.27148,.65039,.88184,.37866,1.3623-.27173,.48145-.88135,.65088-1.36255,.37891-6.05835-3.42285-11.57251-6.37354-17.71045-7.81689-6.92993-1.62988-13.42676-.84424-18.29248,2.21045-6.54712,4.11133-10.38452,12.88037-9.77563,22.34082,.55737,8.66455,4.33936,17.00391,8.16528,24.80273,1.39868,2.85156,3.1394,6.40039,2.58618,10.05469-.33252,2.19727-1.83203,4.30566-3.82056,5.37207-.86328,.46289-1.75659,.6958-2.62842,.6958h.00002Z" fill="#2f2e41"/><path d="M509.7343,503.89846c5.14108,10.20045,2.42822,23.74825-6.24411,31.18266-1.86234,1.59648-3.95874,2.93336-5.62402,4.73441s-2.88739,4.24063-2.46744,6.65736c-5.6814-5.63603-11.47427-11.42664-14.91052-18.65402-3.43628-7.22739-4.10703-16.30031,.36505-22.93684,2.13351-3.16614,5.24329-5.54001,7.66452-8.49194,2.42126-2.95193,4.16815-6.97136,2.8587-10.55768" fill="#2f2e41"/><path d="M611.90482,699.8111c-2.71689,8.30765,1.75659,17.86765,9.09602,22.61435s16.82425,5.23834,25.29692,3.09079c16.38405-4.15283,29.84036-18.18106,33.30801-34.72366,1.44229-6.88046,1.34086-14.25369,4.60607-20.4794,2.05208-3.91266,5.43934-7.44806,5.53718-11.86511,.07951-3.58963-2.25031-6.9975-5.4292-8.66675s-7.05055-1.72833-10.47242-.64087c-8.15623,2.59201-13.16251,10.85193-15.75739,19.00723-2.59488,8.15533-3.56285,16.87524-7.33472,24.5574-3.77187,7.68216-11.56812,14.39011-20.04567,13.21808-7.33113-1.01355-13.53638-7.6235-20.88232-6.72342" fill="#3f3d56"/></g><g><path id="uuid-885e9bdc-6ce1-49cc-bde9-c2169a766327" d="M202.23212,596.14336c-9.91676,1.51998-17.17084,7.86886-16.20246,14.17976,.96838,6.31095,9.79149,10.19306,19.7116,8.67121,3.97101-.55356,7.75172-2.05003,11.02579-4.36428l71.73748-10.80794,2.70351-24.7822-77.1453,17.9635c-3.81829-1.22739-7.87498-1.52233-11.83057-.86006h-.00004Z" fill="#ffb6b6"/><polygon points="382.94524 544.47234 366.68434 578.97769 284.93851 606.49619 284.93851 606.49619 288.92178 578.45147 288.92178 578.45147 364.35732 542.80376 382.94524 544.47234" fill="#e6e6e6"/><polygon points="232.17527 675.48987 217.57631 712.41667 198.68349 699.5352 209.8474 660.89085 232.17527 675.48987" fill="#ffb6b6"/><polygon points="171.20307 661.74961 132.5587 698.67645 148.01645 714.99297 187.51957 684.07748 171.20307 661.74961" fill="#ffb6b6"/><polygon points="390.18777 541.52271 389.75839 538.51703 379.8826 519.19488 347.24961 527.78249 353.26092 554.40417 390.18777 541.52271" fill="#ffb6b6"/><path d="M376.44755,670.33726l1.00357,12.89837s4.14899,54.08521-29.3428,58.37906-48.09076,8.58761-67.84233-24.90413l-30.91549-54.96087-18.0577,21.48598-24.0217-18.90972s17.17527-66.98353,30.91549-69.55984c1.71751-.32201,3.43505-.48308,5.12575-.51828,11.37513-.23698,22.09793,5.32693,28.90395,14.44437l38.96523,52.19868,14.16959-6.44073,51.09644,15.88714v-.00004Z" fill="#2f2e41"/><path d="M190.95462,710.69916l8.67735-12.80438,19.91531,9.45474s6.61659,23.10121-1.11227,25.67756c-7.72886,2.57634-29.19798-.85875-29.19798-.85875,0,0-39.50312,8.58761-40.36188,.85875s18.03405-9.44641,18.03405-9.44641l24.04538-12.88146,.00004-.00004Z" fill="#ffb6b6"/><path d="M275.11343,700.394l-59.68409-37.60641-30.48611,27.30124-20.61032-24.04538s37.7856-55.81962,48.94951-58.39592c11.16392-2.5763,29.19798-4.29381,29.19798-4.29381l54.96087,50.66706-22.32783,46.37325v-.00004Z" fill="#2f2e41"/><path d="M136.7197,695.38026l12.6211,18.0042-.49404,5.55406s-5.12416,22.31771-17.14685,14.76803c-12.02269-7.54967-12.88146-9.26722-12.88146-9.26722,0,0-34.35054,7.7289-37.7856-6.01136s6.01136-11.16392,6.01136-11.16392l8.57749,5.15256,33.43514-11.17653,7.66286-5.85983Z" fill="#ffb6b6"/><circle cx="357.55477" cy="509.74847" r="27.48043" fill="#ffb6b6"/><path d="M351.11404,548.82224l39.50314-12.02271s15.45777,36.06809,12.88146,52.38456c-2.5763,16.31652-26.04748,94.05149-26.04748,94.05149l-52.10001-28.78551s-.85875-17.17527-3.43505-24.90413-10.73454-31.34486,7.29948-51.09644c18.03402-19.75157,21.8985-29.62736,21.8985-29.62736l-.00004,.00009Z" fill="#e6e6e6"/><g><path id="uuid-bafc39ce-7fc4-4ca5-943a-cd1adb54de16" d="M264.17029,729.1467c-6.42891,7.70201-7.66603,17.2623-2.7637,21.35298,4.90229,4.09059,14.08621,1.1623,20.51639-6.54336,2.6108-3.04283,4.45496-6.66667,5.37811-10.56834l60.85677-68.23886-18.85888-10.19399-55.68996,67.0074c-3.67486,1.60658-6.91143,4.06999-9.43876,7.18425l.00004-.00009Z" fill="#ffb6b6"/><polygon points="381.41471 566.1478 390.75184 603.13235 345.05267 676.28449 349.17725 675.34311 324.20197 656.99393 330.32926 652.08547 365.99235 576.65714 381.41471 566.1478" fill="#e6e6e6"/></g><path d="M332.22122,505.02529c7.04769-.01686,7.44782,.03007,8.58761,0,8.7413-.2305,11.02713-3.66956,15.45777-3.43505,7.90792,.41856-2.52933,40.06639-6.87011,58.39592-4.25713,17.9765,10.1301,34.08489,11.16392,35.20929,14.60327,15.88197,40.25423,18.78606,44.6557,12.02271,3.56262-5.47431-9.06335-13.79796-6.01136-25.76288,2.98343-11.69614,16.75949-10.45068,20.61032-21.46908,4.0328-11.53911-9.51958-17.35894-18.03402-45.51446-4.88986-16.16987-4.02485-19.18276-8.58761-29.19794-12.1963-26.77006-71.97724-15.37208-65.26603,9.44641,1.29821,4.80083-2.15666,10.32059,4.29381,10.30516v-.00009Z" fill="#2f2e41"/></g></svg>