<?xml version="1.0" encoding="UTF-8"?><svg id="a" xmlns="http://www.w3.org/2000/svg" width="611.492" height="538.62366" viewBox="0 0 611.492 538.62366"><path d="M84.10482,527.9223c-1.21703,.07623-1.88965-1.43585-.96888-2.31714l.09161-.3642-.0364-.0874c-1.23077-2.93475-5.40199-2.91449-6.6223,.0246-1.08311,2.60864-2.46209,5.22174-2.80163,7.97992-.15221,1.21753-.08373,2.45795,.18644,3.65271-2.53788-5.54376-3.87342-11.59735-3.87342-17.68524,0-1.5296,.08373-3.0592,.25493-4.58496,.14079-1.24805,.33484-2.4884,.58598-3.71741,1.35831-6.6434,4.29955-12.97095,8.54201-18.25598,2.03944-1.11487,3.74023-2.85751,4.76755-4.94638,.36907-.75339,.65825-1.56384,.79523-2.3895-.23209,.03043-.87515-3.50436-.70009-3.72122-.32345-.49081-.90237-.7348-1.25563-1.21375-1.75688-2.38196-4.17742-1.96606-5.44104,1.27084-2.69939,1.36237-2.72552,3.62183-1.06919,5.79486,1.05377,1.38251,1.19856,3.2532,2.12316,4.73328-.09514,.12177-.19407,.23975-.28919,.36151-1.74436,2.23734-3.25305,4.64212-4.52489,7.16849,.35945-2.80777-.17123-6.19037-1.07594-8.37085-1.02986-2.48441-2.96017-4.57681-4.66004-6.72458-2.04182-2.5798-6.22877-1.45392-6.58849,1.81638l-.0102,.09497c.25249,.14243,.49984,.29376,.74146,.45355,1.37819,.91147,.90189,3.04791-.73112,3.29999l-.03698,.00571c.09133,.90939,.24733,1.81116,.4756,2.69772-2.18072,8.43344,2.5273,11.50504,9.24972,11.64304,.1484,.07608,.29301,.15219,.44141,.22452-.6811,1.91766-1.22522,3.8848-1.62851,5.87857-.36146,1.76166-.61261,3.54236-.75337,5.33069-.17505,2.25629-.15982,4.52405,.03045,6.77655l-.01142-.0799c-.48321-2.48077-1.83016-4.79797-3.7859-6.40369-2.91346-2.39331-7.02962-3.2746-10.17272-5.19836-1.513-.92603-3.4518,.27066-3.18774,2.02478l.01285,.08398c.468,.19019,.92458,.41095,1.36595,.6582,.25249,.14246,.49984,.29376,.74146,.45355,1.37819,.9115,.90189,3.04797-.73112,3.30005l-.03701,.00568-.07606,.01147c.80284,1.90619,1.92145,3.67554,3.32166,5.20129,1.36355,7.36206,7.22002,8.06055,13.48461,5.91663h.00382c.68488,2.98309,1.68558,5.89764,2.97165,8.67523h10.61568c.03808-.11792,.07231-.23975,.10656-.35767-.98167,.06091-1.97095,.00378-2.93742-.17499,.78763-.96649,1.57523-1.94055,2.36286-2.90698,.01902-.01904,.03427-.03809,.04947-.05707,.39951-.49463,.80284-.98547,1.20234-1.4801l.00022-.00061c.02501-1.51843-.15701-3.03186-.51767-4.50061l-.00033-.00018-.00002-.00006,.00006,.00006Z" fill="#f2f2f2"/><path d="M535.94708,527.9223c1.21704,.07623,1.88965-1.43585,.96887-2.31714l-.09161-.3642,.03638-.0874c1.23077-2.93475,5.40198-2.91449,6.62231,.0246,1.08313,2.60864,2.4621,5.22174,2.80164,7.97992,.15222,1.21753,.08374,2.45795-.18646,3.65271,2.5379-5.54376,3.87341-11.59735,3.87341-17.68524,0-1.5296-.08374-3.0592-.25494-4.58496-.14081-1.24805-.33484-2.4884-.586-3.71741-1.35834-6.6434-4.29956-12.97095-8.54199-18.25598-2.03943-1.11487-3.74023-2.85751-4.76758-4.94638-.36908-.75339-.65826-1.56384-.79523-2.3895,.23212,.03043,.87512-3.50436,.70007-3.72122,.32343-.49081,.90234-.7348,1.25562-1.21375,1.7569-2.38196,4.17743-1.96606,5.44104,1.27084,2.6994,1.36237,2.72552,3.62183,1.06921,5.79486-1.05377,1.38251-1.19855,3.2532-2.12317,4.73328,.09515,.12177,.19409,.23975,.28918,.36151,1.74438,2.23734,3.25305,4.64212,4.5249,7.16849-.35944-2.80777,.1712-6.19037,1.07593-8.37085,1.02985-2.48441,2.96014-4.57681,4.66003-6.72458,2.04181-2.5798,6.22876-1.45392,6.5885,1.81638l.01019,.09497c-.2525,.14243-.49982,.29376-.74146,.45355-1.37817,.91147-.90192,3.04791,.73114,3.29999l.03699,.00571c-.09131,.90939-.24731,1.81116-.47559,2.69772,2.18073,8.43344-2.52728,11.50504-9.24969,11.64304-.14838,.07608-.29303,.15219-.44141,.22452,.68109,1.91766,1.22522,3.8848,1.62854,5.87857,.36145,1.76166,.61261,3.54236,.75336,5.33069,.17505,2.25629,.15979,4.52405-.03046,6.77655l.01141-.0799c.48322-2.48077,1.83014-4.79797,3.78589-6.40369,2.91345-2.39331,7.0296-3.2746,10.17273-5.19836,1.513-.92603,3.45178,.27066,3.18774,2.02478l-.01288,.08398c-.46802,.19019-.92456,.41095-1.36597,.6582-.2525,.14246-.49982,.29376-.74146,.45355-1.37817,.9115-.90192,3.04797,.73114,3.30005l.03699,.00568,.07605,.01147c-.80286,1.90619-1.92145,3.67554-3.32166,5.20129-1.36353,7.36206-7.22003,8.06055-13.48462,5.91663h-.00385c-.68488,2.98309-1.68561,5.89764-2.97168,8.67523h-10.61566c-.03809-.11792-.07233-.23975-.10657-.35767,.98169,.06091,1.97095,.00378,2.93744-.17499-.78766-.96649-1.57526-1.94055-2.36285-2.90698-.01904-.01904-.03424-.03809-.0495-.05707-.39954-.49463-.80286-.98547-1.20233-1.4801l-.00024-.00061c-.02502-1.51843,.15698-3.03186,.5177-4.50061l.00031-.00018v-.00006l.00012,.00006Z" fill="#f2f2f2"/><g><polygon points="330.42502 532.41931 339.53735 532.41846 343.87213 497.27051 330.42316 497.27142 330.42502 532.41931" fill="#ffb6b6"/><path d="M361.64496,532.21259h0c.28372,.47784,.43344,2.02008,.43344,2.57581h0c0,1.70807-1.38467,3.09271-3.09274,3.09271h-28.21979c-1.16525,0-2.10986-.94464-2.10986-2.10986v-1.17487s-1.39603-3.53113,1.47815-7.88342c0,0,3.57217,3.40796,8.90991-1.92981l1.57404-2.8515,11.39395,8.33295,6.31549,.7774c1.38168,.17004,2.60669-.02643,3.31744,1.17059h-.00003Z" fill="#2f2e41"/></g><g><polygon points="267.49289 532.41931 276.60522 532.41846 280.94 497.27051 267.49106 497.27142 267.49289 532.41931" fill="#ffb6b6"/><path d="M298.71286,532.21259h0c.28372,.47784,.43344,2.02008,.43344,2.57581h0c0,1.70807-1.38467,3.09271-3.09274,3.09271h-28.21979c-1.16525,0-2.10986-.94464-2.10986-2.10986v-1.17487s-1.39603-3.53113,1.47815-7.88342c0,0,3.57217,3.40796,8.90991-1.92981l1.57404-2.8515,11.39395,8.33295,6.31549,.7774c1.38168,.17004,2.60669-.02643,3.31744,1.17059h-.00003Z" fill="#2f2e41"/></g><path id="b" d="M1.01849,538.62366H610.47351c.5625,0,1.01849-.45599,1.01849-1.01849s-.45599-1.01849-1.01849-1.01849H1.01849c-.5625,0-1.01849,.45599-1.01849,1.01849s.45599,1.01849,1.01849,1.01849Z" fill="#e6e6e6"/><path id="c" d="M333.14899,366.42102l3.37701,4.44199s.30603,2.07401,5.42798,18.974l2.81,127.022h-17l-22.71899-101.63297-23.58197,103.67099-14.73499,.86902,.69098-117.83301s-1.86102-24.242,4.73602-28.74399,60.99396-6.76804,60.99396-6.76804Z" fill="#2f2e41"/><circle id="d" cx="310.35303" cy="241.84303" r="17.837" fill="#feb8b8"/><path id="e" d="M296.763,263.03604l-9.87,5.45499-19.388,5.42899,5.78699,50.73801-1.05298,49.978s32.81897,22.483,64.289-3.77399v-67.90799l-1.47748-27.00558c-.17227-3.14886-2.95694-5.59183-6.08325-5.1781-1.78543,.23627-3.84134,.19052-5.94135-.50946l-6.53243-7.58087-19.73051,.35605v-.00003Z" fill="#6c63ff"/><g><path d="M368.37546,215.99582c.224,2.44534-.12286,4.73856-.88177,6.57162l3.60547,23.16042-11.07083,1.39323-2.46539-23.64394c-1.07935-1.66467-1.8371-3.85669-2.06113-6.30205-.51175-5.5864,1.95526-10.37903,5.51022-10.70468s6.85168,3.93898,7.36343,9.52538h0v.00002Z" fill="#ffb6b6"/><path id="f" d="M323.02594,270.26089l2.98809,1.36661c2.74161-2.94711,11.00028-2.48346,15.00727-2.10141l17.60876,1.67896-1.93693-31.69978,14.40602-5.51101,6.4791,34.97157c.89471,4.82928-1.11264,9.73624-5.13553,12.55383l-37.73965,21.43237-4.38699-29.35699-7.29013-3.33414Z" fill="#6c63ff"/></g><g><path d="M231.76274,390.9256c.18797-2.44839,.91338-4.65131,1.96808-6.33173l.31755-23.43723,11.14793,.47736-1.52243,23.72333c.78584,1.82172,1.16643,4.10956,.97845,6.55792-.42944,5.59332-3.66306,9.90604-7.22243,9.63275s-6.09666-5.02911-5.66722-10.62241h0l.00005-.00003,.00002,.00003Z" fill="#ffb6b6"/><path id="g" d="M275.76624,280.33105l-5.12277-7.78119s-8.35495,1.5947-12.79431,7.89429-21.21986,44.9339-21.21986,44.9339l-3.22242,43.61347,12.48147-2.5705,6.02232-33.07611,19.36482-26.46204,4.49078-26.55185-.00003,.00003Z" fill="#6c63ff"/></g><path d="M292.90219,245.47682c-.9476-2.29007-1.90454-4.61475-2.20895-7.07436s.11942-5.11382,1.6864-7.03394c.5253-.64366,1.16235-1.18742,1.70883-1.8132,1.74762-2.00114,2.46616-4.7065,4.0256-6.85751,2.31561-3.19408,6.49146-4.87672,10.39957-4.33752,.89157,.12302,1.76495,.35049,2.63586,.57748l6.57507,1.71367c1.82904,.47672,3.87277,1.12102,4.71024,2.81551,.38876,.78661,.45071,1.69377,.75418,2.51706,.55557,1.50722,1.85184,2.59132,2.88751,3.81924,3.58096,4.24564,5.04459,10.84586,1.94943,15.45766,.67523-3.40302-1.57394-3.51993-4-6s-6.05948-3.20631-9.47656-2.60619c1.87827,.56339,.47656,1.60619,4.39133,3.6707l-8.7999-1.84528c1.41382,.41991,1.88513,1.78075,3.21024,2.83975-4.55399-.38737-9.10794-4.77473-13.66193-5.16209-1.82904-.15558-3.97809-.18251-5.12433,1.25128-1.74841,2.18703,.33023,5.87547-1.4064,8.07187" fill="#2f2e41"/><path d="M35.17861,159.03168h0c-.769-2.22366,.08551-4.61597,1.93593-5.88564,1.01278-.69493,2.02411-1.38773,2.94487-2.20065,17.98592-15.87959,49.64749-23.6649,85.91628-28.72335h0c-35.5412,5.33396-65.32162,15.97301-82.66505,38.06528-2.15048,2.7393-6.56273,2.33386-7.97268-.85052-.05823-.13152-.11145-.26659-.15935-.40511v-.00002Z" fill="#e6e6e6"/><path d="M32.3056,79.34011h0c.78938-2.21651,2.95156-3.55003,5.1896-3.38476,1.22494,.09045,2.44741,.18166,3.67426,.12248,23.96495-1.15592,53.54721,12.55378,85.02193,31.27156h0c-29.48704-23.85971-56.43732-44.92505-88.32221-21.94684-3.39075,.79446-6.5818-2.27952-5.69235-5.64661,.03673-.13906,.07961-.27777,.12878-.41583h-.00001Z" fill="#e6e6e6"/><path d="M232.43414,162.2766h0c-1.14275,2.05673-3.49461,3.01695-5.67509,2.48631-1.19344-.29044-2.38432-.58122-3.60422-.72438-23.82928-2.79643-50.75764-21.17929-78.73009-44.81306h0c27.69205,22.90805,55.49016,37.98544,83.51729,36.15714,3.4752-.2267,6.11795,3.32973,4.68747,6.50497-.05908,.13113-.12415,.26093-.19533,.38902h-.00003Z" fill="#e6e6e6"/><path d="M182.23819,170.49263h0c-1.22173,.93774-2.88416,.90219-4.05557,.01585-.64114-.48511-1.28065-.96976-1.97604-1.37331-13.58331-7.88275-24.9704-25.93309-35.61758-47.40879h0c10.66771,20.96687,23.43762,37.25843,40.74599,43.45646,2.14613,.76852,2.8075,3.59239,1.1218,5.12698-.06963,.06339-.14249,.12437-.2186,.18279l.00002,.00002Z" fill="#e6e6e6"/><path d="M77.39896,165.03915h0c-.8451-1.28754-.68707-2.94283,.28322-4.0457,.53106-.60362,1.06154-1.20567,1.51527-1.8694,8.86284-12.96512,27.70366-22.99026,49.90597-32.025h0c-21.69636,9.0927-38.88516,20.62661-46.34254,37.43085-.92467,2.08363-3.78962,2.53497-5.19574,.74071-.05807-.0741-.11354-.15128-.16618-.23148l.00002,.00002Z" fill="#e6e6e6"/><path d="M192.83894,22.95311h0c1.98395,1.26489,2.80037,3.67046,2.13899,5.81492-.36198,1.17372-.72417,2.34485-.94075,3.5539-30.48058,16.66806-30.71924,47.66171-49.48643,75.87973v-.00002c24.53879-26.25787,41.26761-53.09459,41.13545-81.18098-.01639-3.48255,3.69316-5.90567,6.77621-4.28602,.12733,.06689,.25294,.13969,.37653,.21846Z" fill="#e6e6e6"/><path d="M118.14382,32.01759h0c1.1764-.26163,2.34393,.31273,2.88211,1.3284,.29456,.55591,.58812,1.11094,.94809,1.6269,7.03165,10.07862,9.14677,26.64428,9.60555,45.39537h0c-.64143-18.39691-4.31844-34.17175-14.54899-44.28577-1.26853-1.25408-.80488-3.47569,.8978-4.00745,.07032-.02196,.14216-.04116,.21544-.05746v.00002Z" fill="#6c63ff"/><path d="M97.09493,76.3323h0c.32768-.53035,.96194-.75566,1.53256-.58847,.31231,.09151,.62394,.18308,.94507,.23593,6.27275,1.03239,13.1746,6.22815,20.28839,12.8265h0c-7.04848-6.40283-14.22107-10.73438-21.6616-10.5942-.92258,.01738-1.57844-.95633-1.16088-1.7792,.01724-.03398,.03606-.06754,.05647-.10057h-.00002Z" fill="#6c63ff"/><path d="M83.17632,118.52702h0c-.13423-.6088,.16399-1.21221,.6899-1.48965,.28785-.15185,.57524-.30318,.84249-.48891,5.22028-3.62794,13.79164-4.70644,23.49195-4.92607h0c-9.51727,.31444-17.68102,2.20166-22.92262,7.48435-.64993,.65502-1.79872,.41308-2.07219-.46821-.01129-.0364-.02116-.07358-.02952-.1115l-.00002-.00002Z" fill="#6c63ff"/><path d="M189.45126,127.39414h0c-.39072,.48579-1.04796,.63097-1.59354,.39454-.29861-.12941-.59653-.25879-.90866-.35092-6.09706-1.79973-12.30385-7.80865-18.54761-15.23562h0c6.20311,7.22487,12.78537,12.40967,20.18619,13.19014,.91766,.09677,1.44814,1.14408,.93208,1.90903-.02132,.03159-.04413,.06256-.06847,.09282v.00002Z" fill="#6c63ff"/><path d="M133.48836,181.19762h0c-1.19765-.1342-2.11568-1.05629-2.2952-2.19164-.09827-.6214-.19586-1.24165-.36896-1.8465-3.38129-11.8148-.00732-28.17056,5.64243-46.05615h0c-5.36208,17.60982-7.00206,33.7243-.6064,46.61046,.79303,1.59781-.36633,3.54881-2.14943,3.49937-.07364-.00204-.14783-.00719-.22243-.01553l-.00002-.00002Z" fill="#6c63ff"/><polygon points="45.34017 101.69456 47.69936 108.95543 55.33389 108.95543 49.15743 113.44289 51.51663 120.70376 45.34017 116.2163 39.1637 120.70376 41.5229 113.44289 35.34644 108.95543 42.98097 108.95543 45.34017 101.69456" fill="#6c63ff"/><polygon points="150.54813 14.6707 152.9073 21.93157 160.54184 21.93157 154.36539 26.41903 156.72458 33.6799 150.54813 29.19243 144.37164 33.6799 146.73085 26.41903 140.5544 21.93157 148.18892 21.93157 150.54813 14.6707" fill="#e6e6e6"/><polygon points="206.39925 92.60251 208.75845 99.86338 216.39297 99.86338 210.21651 104.35085 212.57571 111.61171 206.39925 107.12425 200.22279 111.61171 202.58199 104.35085 196.40552 99.86338 204.04005 99.86338 206.39925 92.60251" fill="#6c63ff"/><polygon points="93.39812 171.83319 95.75732 179.09406 103.39185 179.09406 97.21538 183.58151 99.57458 190.84239 93.39812 186.35493 87.22165 190.84239 89.58085 183.58151 83.40439 179.09406 91.03892 179.09406 93.39812 171.83319" fill="#6c63ff"/><polygon points="136.26062 92.60251 138.61983 99.86338 146.25433 99.86338 140.07788 104.35085 142.43707 111.61171 136.26062 107.12425 130.08415 111.61171 132.44334 104.35085 126.26689 99.86338 133.90141 99.86338 136.26062 92.60251" fill="#6c63ff"/><polygon points="192.26062 0 194.61983 7.26087 202.25433 7.26087 196.07788 11.74833 198.43707 19.0092 192.26062 14.52174 186.08415 19.0092 188.44334 11.74833 182.26689 7.26087 189.90141 7.26087 192.26062 0" fill="#e6e6e6"/><polygon points="27.26062 162 29.61982 169.26086 37.25434 169.26086 31.07788 173.74834 33.43708 181.0092 27.26062 176.52174 21.08415 181.0092 23.44335 173.74834 17.26689 169.26086 24.90142 169.26086 27.26062 162" fill="#e6e6e6"/><path d="M431.49033,163.90985h0c-.48187-1.39334,.05359-2.89235,1.21304-3.68793,.63461-.43544,1.26831-.86957,1.84525-1.37894,12.52664-10.58954,31.48184-15.0181,53.83499-17.99802h0c-25.08524,.66983-54.4913-2.86475-51.79779,23.85165-1.3475,1.71646-4.11218,1.4624-4.99567-.53294-.0365-.0824-.06982-.16705-.09985-.25383h.00003Z" fill="#e6e6e6"/><path d="M429.69012,113.97525h0c.49463-1.38886,1.84943-2.22444,3.2518-2.12089,.76755,.05668,1.53354,.11383,2.30228,.07675,15.01639-.7243,33.55258,7.86618,53.2746,19.5947h0c-19.474-11.30883-38.20755-17.76671-55.34256-13.75185-2.12463,.49782-4.12415-1.42834-3.56683-3.53815,.02301-.08713,.04987-.17405,.08069-.26056l.00003-.00002Z" fill="#e6e6e6"/><path d="M555.09033,165.94312h0c-.71606,1.28876-2.1897,1.89043-3.55603,1.55791-.7478-.18199-1.49402-.36418-2.25842-.4539-20.79279-20.35571-33.53534-18.76382-49.33215-28.07977h0c17.35181,14.35416,34.77002,23.80161,52.33179,22.65601,2.17755-.14204,3.8335,2.0864,2.93713,4.076-.03705,.08217-.07782,.16348-.12238,.24376h.00006Z" fill="#e6e6e6"/><path d="M530.28003,78.64325h0c1.24316,.79258,1.7547,2.2999,1.34027,3.64362-.22681,.73545-.45374,1.46929-.58948,2.22686-2.65088,14.7983-15.1676,30.94505-31.00812,47.5461h0c15.37598-16.45314,25.85822-33.26898,25.77539-50.86786-.01025-2.18216,2.31415-3.70048,4.24597-2.68562,.07977,.04191,.15851,.08753,.2359,.1369h.00006Z" fill="#e6e6e6"/><path d="M483.4762,84.32304h0c.73712-.16394,1.46869,.19596,1.80591,.83237,.18457,.34833,.3685,.69611,.59406,1.01941,4.40601,6.31525,5.73135,16.69526,6.01883,28.44467h0c-.40192-11.52747-2.70593-21.41196-9.11636-27.74939-.79486-.7858-.50433-2.17786,.56256-2.51106,.04407-.01376,.08908-.02579,.13498-.03601l.00003,.00002Z" fill="#6c63ff"/><path d="M470.28702,112.09056h0c.20532-.33232,.60275-.47349,.9603-.36873,.19571,.05734,.39096,.11472,.59219,.14783,3.93048,.6469,8.25519,3.90255,12.71268,8.03707h0c-4.41656-4.012-8.91089-6.72614-13.57312-6.63831-.57809,.01089-.98904-.59924-.72742-1.11484,.0108-.02129,.02261-.04232,.03537-.06302Z" fill="#6c63ff"/><path d="M461.56564,138.52969h0c-.08411-.38147,.10275-.75957,.43228-.93341,.18036-.09515,.36044-.18997,.52789-.30635,3.27103-2.27325,8.64182-2.94905,14.72003-3.08667h0c-5.9635,.19704-11.07889,1.37956-14.36328,4.68968-.40723,.41045-1.12708,.25883-1.29843-.29338-.00708-.02281-.01328-.0461-.01849-.06985v-.00002Z" fill="#6c63ff"/><path d="M473.16898,159.46881h0c-.28165-.27068-.336-.68892-.15833-1.0164,.09726-.17924,.19443-.35805,.26917-.54779,1.45978-3.70625,5.55283-7.24872,10.53302-10.73602h0c-4.85181,3.47308-8.45117,7.29538-9.34671,11.87163-.11105,.56743-.79401,.84074-1.24298,.47644-.01855-.01505-.03662-.03101-.05417-.04787v.00002Z" fill="#e6e6e6"/><path d="M522.40051,176.67413h0c-.28284,.26942-.70306,.30525-1.0224,.1133-.17474-.10507-.34912-.21007-.5354-.29311-3.63818-1.62202-6.99646-5.86752-10.26038-10.99686h0c3.25543,5.00046,6.91504,8.76512,11.44727,9.86188,.56195,.13599,.80487,.83035,.42108,1.26282-.01587,.01785-.03259,.03522-.05017,.05199v-.00002Z" fill="#e6e6e6"/><path d="M464.29138,86.83557h0c.3223-.22071,.74286-.18886,1.02737,.05172,.1557,.13167,.31104,.26321,.4816,.37497,3.33188,2.1831,5.96777,6.91112,8.36923,12.4965h0c-2.41364-5.45679-5.42395-9.75838-9.72238-11.56598-.53299-.22413-.66168-.94841-.21365-1.31391,.01849-.01509,.03781-.02954,.05786-.04329h-.00003Z" fill="#e6e6e6"/><path d="M528.15735,144.08582h0c-.24481,.3044-.65668,.39537-.99854,.24722-.18713-.08109-.37378-.16216-.5694-.21989-3.82043-1.12772-7.70959-4.89288-11.62189-9.54662h0c3.88684,4.52708,8.01129,7.77588,12.64862,8.26492,.57501,.06064,.90741,.71687,.58405,1.1962-.01337,.01981-.02765,.0392-.04291,.05817h.00006Z" fill="#6c63ff"/><path d="M493.09106,177.799h0c-.75043-.08409-1.32568-.66187-1.43817-1.37328-.06158-.38937-.12274-.77802-.2312-1.15701-2.11871-7.40314-.00458-17.65163,3.53555-28.8587h0c-3.35986,11.03429-4.38748,21.13159-.37997,29.20604,.49692,1.00117-.22955,2.22368-1.34683,2.1927-.04614-.00128-.09262-.0045-.13937-.00974v-.00002Z" fill="#6c63ff"/><polygon points="437.85757 127.98251 439.33582 132.53217 444.1196 132.53217 440.24945 135.34399 441.72772 139.89365 437.85757 137.0818 433.9874 139.89365 435.46567 135.34399 431.59549 132.53217 436.3793 132.53217 437.85757 127.98251" fill="#6c63ff"/><polygon points="503.78067 73.4535 505.25894 78.00315 510.04276 78.00315 506.17258 80.81499 507.65085 85.36464 503.78067 82.5528 499.91052 85.36464 501.38879 80.81499 497.51862 78.00315 502.3024 78.00315 503.78067 73.4535" fill="#e6e6e6"/><polygon points="538.77692 122.28545 540.25519 126.8351 545.03894 126.8351 541.16882 129.64693 542.64709 134.19658 538.77692 131.38474 534.90674 134.19658 536.38501 129.64693 532.51483 126.8351 537.29865 126.8351 538.77692 122.28545" fill="#6c63ff"/><polygon points="467.97058 171.93126 469.44885 176.48091 474.23264 176.48091 470.36249 179.29274 471.84076 183.84239 467.97058 181.03056 464.10043 183.84239 465.5787 179.29274 461.70853 176.48091 466.49231 176.48091 467.97058 171.93126" fill="#6c63ff"/><polygon points="494.82816 122.28545 496.30643 126.8351 501.09021 126.8351 497.22006 129.64693 498.69833 134.19658 494.82816 131.38474 490.95801 134.19658 492.43628 129.64693 488.5661 126.8351 493.34988 126.8351 494.82816 122.28545" fill="#6c63ff"/><polygon points="529.91766 64.26087 531.39594 68.81052 536.17975 68.81052 532.30957 71.62235 533.78784 76.172 529.91766 73.36016 526.04749 76.172 527.52576 71.62235 523.65564 68.81052 528.43939 68.81052 529.91766 64.26087" fill="#e6e6e6"/><polygon points="426.52893 165.76981 428.0072 170.31944 432.79099 170.31944 428.92084 173.13129 430.39911 177.68092 426.52893 174.86909 422.65878 177.68092 424.13705 173.13129 420.26688 170.31944 425.05066 170.31944 426.52893 165.76981" fill="#e6e6e6"/></svg>