<svg id="f12e60ce-a93c-43f8-9851-c621cf232bcc" data-name="Layer 1" xmlns="http://www.w3.org/2000/svg" width="781.72273" height="636.9223" viewBox="0 0 781.72273 636.9223"><path d="M323.85618,674.19455c49.33789-25.57617,151.32971-68.48291,280.06921-68.48291s230.73121,42.90674,280.0691,68.48291c48.03222,24.89966,86.66125,54.25775,104.85785,78.2113,6.633-9.02789-3.10224-169.64245-30.04389-233.33972A516.23463,516.23463,0,0,0,482.74522,203.511a273.27036,273.27036,0,0,0-194.50537,80.56689q-1.62355,1.62355-3.21668,3.26932c-57.01738,58.89944-83.64047,140.84439-73.92029,222.24249,6.92037,57.952,23.97576,179.16519,48.07419,204.86612A458.81444,458.81444,0,0,1,323.85618,674.19455Z" transform="translate(-209.13864 -131.53885)" fill="#f2f2f2"/><circle cx="484.29085" cy="73.73605" r="73.73605" fill="#6c63ff"/><ellipse cx="400.52003" cy="496.8222" rx="81.96896" ry="17.1001" fill="#f2f2f2"/><path d="M692.92875,242.011c-75.14014-.00678-133.99878-13.62879-133.99719-31.01209.00091-10.42187,20.85773-19.71883,57.22229-25.50607a1,1,0,1,1,.3269,1.9731l-.01263.002c-34.25537,5.452-55.53571,14.46863-55.53656,23.53113-.0014,15.71973,60.44586,29.00545,131.99737,29.0119s132.00123-13.26837,132.00263-28.9881c.00079-9.10058-21.41388-18.143-55.88751-23.59781a1.00008,1.00008,0,1,1,.30572-1.97665l.007.0011c36.59051,5.78992,57.57581,15.11114,57.57483,25.57355C826.93,228.40634,768.06889,242.01773,692.92875,242.011Z" transform="translate(-209.13864 -131.53885)" fill="#3f3d56"/><ellipse cx="402.83986" cy="496.67566" rx="55.60471" ry="9.2179" fill="#e6e6e6"/><ellipse cx="217.51989" cy="583.82507" rx="93.55163" ry="19.51648" fill="#f2f2f2"/><ellipse cx="598.52" cy="607.8222" rx="139.49066" ry="29.1001" fill="#f2f2f2"/><ellipse cx="217.23513" cy="583.19775" rx="71.7109" ry="11.88794" fill="#e6e6e6"/><ellipse cx="598.55077" cy="605.97357" rx="122.60254" ry="20.32446" fill="#e6e6e6"/><circle cx="57.78677" cy="315.47211" r="7" fill="#fff"/><circle cx="547.78679" cy="417.47211" r="7" fill="#fff"/><path d="M517.85813,325.09116c0,17.67312,16.34162,15,36.5,15s36.5,2.67312,36.5-15-7.98248-49-36.5-49C524.85813,276.09116,517.85813,307.41806,517.85813,325.09116Z" transform="translate(-209.13864 -131.53885)" fill="#2f2e41"/><path d="M473.13267,474.74442a10.74267,10.74267,0,0,1,6.25284-15.23975l41.81613-88.459,19.12793,13.413L493.211,467.19333a10.80091,10.80091,0,0,1-20.07831,7.551Z" transform="translate(-209.13864 -131.53885)" fill="#ffb8b8"/><path d="M508.96461,382.78995a4.81158,4.81158,0,0,1,.55209-3.97272l13.00141-20.38208A13.37737,13.37737,0,0,1,546.974,369.28506l-6.54913,23.35315a4.81694,4.81694,0,0,1-6.60407,3.09632l-22.20856-9.93085A4.81147,4.81147,0,0,1,508.96461,382.78995Z" transform="translate(-209.13864 -131.53885)" fill="#6c63ff"/><polygon points="415.837 514.151 404.317 518.346 382.656 475.908 399.658 469.717 415.837 514.151" fill="#ffb8b8"/><path d="M604.02827,649.5892l22.217-8.08921h0l5.09319,13.98848h0L595.133,668.67086h0A14.88688,14.88688,0,0,1,604.02827,649.5892Z" transform="translate(-209.13864 -131.53885)" fill="#2f2e41"/><path d="M593.52641,618.84634l-43.88709-76.802a4.822,4.822,0,0,1,.052-4.868l19.76239-32.9371a4.81656,4.81656,0,0,1,8.66077.84149l37.36377,103.46817a4.79862,4.79862,0,0,1-2.46851,5.98968l-13.23925,6.27088a4.77336,4.77336,0,0,1-2.04389.45892A4.8402,4.8402,0,0,1,593.52641,618.84634Z" transform="translate(-209.13864 -131.53885)" fill="#2f2e41"/><circle cx="343.66188" cy="183.03191" r="24.56104" fill="#ffb8b8"/><path d="M517.86534,425.8222c-19.34214-42.88855.15734-66.85885,9.43872-75.17337a14.55692,14.55692,0,0,1,9.7301-3.72134h34.59943a14.576,14.576,0,0,1,13.03753,21.09464l-23.12958,46.25866-43.488,11.95954Z" transform="translate(-209.13864 -131.53885)" fill="#6c63ff"/><polygon points="336.698 525.748 324.438 525.747 318.606 478.459 336.7 478.46 336.698 525.748" fill="#ffb8b8"/><path d="M524.81962,653.78317h23.64386V668.67H509.93281A14.88684,14.88684,0,0,1,524.81962,653.78317Z" transform="translate(-209.13864 -131.53885)" fill="#2f2e41"/><path d="M540.64189,639.23434l-19.62854-2.26416a4.81787,4.81787,0,0,1-4.23291-5.33905c.00317-.027.00647-.054.01007-.08093l17.51831-131.8999a3.74985,3.74985,0,0,0-.07294-1.37668l-17.60767-72.64474a4.761,4.761,0,0,1,.75367-3.92624c2.7304-3.76422,12.08575-12.53656,39.91436-12.70276h.03a4.8344,4.8344,0,0,1,4.39716,2.82654l3.71222,8.16607a3.76275,3.76275,0,0,0,1.25281,1.51258c5.10955,3.61682,29.862,23.918,15.32782,68.48852-14.28486,43.80734-32.58716,128.85483-36.11121,145.45877a4.7913,4.7913,0,0,1-4.69769,3.81439A4.91542,4.91542,0,0,1,540.64189,639.23434Z" transform="translate(-209.13864 -131.53885)" fill="#2f2e41"/><path d="M638.28019,320.73538a10.52833,10.52833,0,0,0,.27258,1.635l-33.34716,36.70773-11.77759-2.5383-6.15387,17.27378,20.41321,6.5198a8,8,0,0,0,9.069-3.15139l31.52106-46.79548a10.49717,10.49717,0,1,0-9.99732-9.65112Z" transform="translate(-209.13864 -131.53885)" fill="#ffb8b8"/><path d="M604.19609,360.634l-7.73114,21.3722a4.5,4.5,0,0,1-6.36573,2.431l-19.94781-10.74708a12.49741,12.49741,0,0,1,8.57116-23.47918l22.13623,4.48211a4.5,4.5,0,0,1,3.33729,5.94095Z" transform="translate(-209.13864 -131.53885)" fill="#6c63ff"/><path d="M582.85813,313.09116h-9.71435l-4.28565-12-.85693,12h-4.64307l-2.5-7-.5,7h-34.5a26,26,0,0,1,26-26h5A26,26,0,0,1,582.85813,313.09116Z" transform="translate(-209.13864 -131.53885)" fill="#2f2e41"/><path d="M323.42539,570.011h-3.5v-3.5a4.5,4.5,0,0,0-9,0v3.5h-3.5a4.5,4.5,0,0,0,0,9h3.5v3.5a4.5,4.5,0,0,0,9,0v-3.5h3.5a4.5,4.5,0,0,0,0-9Z" transform="translate(-209.13864 -131.53885)" fill="#fff"/><path d="M838.58537,484.171h-1.82v-1.82a2.34,2.34,0,0,0-4.68,0v1.82h-1.82a2.34,2.34,0,0,0,0,4.68h1.82v1.82a2.34,2.34,0,0,0,4.68,0v-1.82h1.82a2.34,2.34,0,0,0,.00824-4.68Z" transform="translate(-209.13864 -131.53885)" fill="#ff6584"/><path d="M307.5854,363.171h-1.82v-1.82a2.34,2.34,0,1,0-4.68-.00821V363.171h-1.82a2.34,2.34,0,1,0-.00821,4.68h1.82822v1.82a2.34,2.34,0,1,0,4.68.00821V367.851h1.82a2.34,2.34,0,1,0,.00821-4.68Z" transform="translate(-209.13864 -131.53885)" fill="#6c63ff"/><path d="M442.5854,363.171h-1.82v-1.82a2.34,2.34,0,1,0-4.68-.00821V363.171h-1.82a2.34,2.34,0,1,0-.00821,4.68h1.82822v1.82a2.34,2.34,0,1,0,4.68.00821V367.851h1.82a2.34,2.34,0,1,0,.00821-4.68Z" transform="translate(-209.13864 -131.53885)" fill="#fff"/><path d="M907.58537,603.17093h-1.82v-1.82a2.34,2.34,0,0,0-4.68,0v1.82h-1.82a2.34,2.34,0,0,0,0,4.68h1.82v1.82a2.34,2.34,0,0,0,4.68,0v-1.82h1.82a2.34,2.34,0,0,0,0-4.68Z" transform="translate(-209.13864 -131.53885)" fill="#fff"/><path d="M697.58537,408.171h-1.82v-1.82a2.34,2.34,0,0,0-4.68,0v1.82h-1.82a2.34,2.34,0,0,0,0,4.68h1.82v1.82a2.34,2.34,0,0,0,4.68,0v-1.82h1.82a2.34,2.34,0,0,0,.00824-4.68Z" transform="translate(-209.13864 -131.53885)" fill="#fff"/><path d="M376.5854,458.171h-1.82v-1.82a2.34,2.34,0,1,0-4.68-.00821V458.171h-1.82a2.34,2.34,0,1,0-.00821,4.68h1.82822v1.82a2.34,2.34,0,1,0,4.68.00821V462.851h1.82a2.34,2.34,0,1,0,.00821-4.68Z" transform="translate(-209.13864 -131.53885)" fill="#fff"/><path d="M382.5854,292.171h-1.82v-1.82a2.34,2.34,0,1,0-4.68-.00821V292.171h-1.82a2.34,2.34,0,1,0-.00821,4.68h1.82822v1.82a2.34,2.34,0,1,0,4.68.00821V296.851h1.82a2.34,2.34,0,1,0,.00821-4.68Z" transform="translate(-209.13864 -131.53885)" fill="#fff"/><path d="M693.42666,227.61425c-72.43628-36.59033-133.18048-24.70074-133.99719-31.01208.00092-10.42188,20.85775-19.71884,57.22232-25.50609a1,1,0,1,1,.3269,1.9731l-.01263.002c-34.25537,5.452-55.53571,14.46863-55.53656,23.53113-.00141,15.71973,60.44586,29.00545,131.99737,29.0119s132.00122-13.26837,132.00263-28.98809c.00079-9.10059-21.41388-18.143-55.88752-23.59781a1.00008,1.00008,0,1,1,.30573-1.97666l.007.0011c36.59051,5.78992,57.5758,15.11115,57.57483,25.57355C827.42791,214.00963,760.49563,261.49334,693.42666,227.61425Z" transform="translate(-209.13864 -131.53885)" fill="#3f3d56"/></svg>