<svg id="f980745c-b9b8-425d-884f-712a61092588" data-name="Layer 1" xmlns="http://www.w3.org/2000/svg" width="829.10546" height="538.34668" viewBox="0 0 829.10546 538.34668"><polygon points="829.105 538.347 98.105 538.347 98.105 0 100.105 0 100.105 536.347 829.105 536.347 829.105 538.347" fill="#3f3d56"/><path d="M537.76574,655.7107s-1.15118,5.86813-2.86393,14.75459c-2.42865,12.49431-5.95236,30.96917-8.91448,47.53471H308.33276c15.91973-25.63451,37.21628-52.68694,54.16089-72.91654l1.26351-1.51619c.54753-.64581,1.081-1.27748,1.61439-1.90923,6.7105-7.93185,12.57862-14.64226,16.95866-19.58388,0-.014.01406-.014.02811-.014,5.124-5.76985,8.2266-9.097,8.2266-9.097l5.447,1.58637,12.57863,3.65,92.57059,26.884Z" transform="translate(-185.44727 -180.82666)" fill="#2f2e41"/><path d="M548.12274,662.35663c-.42,20.41-106.11-8.85-122.02-23.37-15.91-14.53-47.01,10.1-62.41.63-15.4-9.48,27.79-45.42,27.79-45.42a48.12661,48.12661,0,0,0-7.58-24.06c-7.58-11.37,0-5.05,4.57-10.35,4.56-5.3,5.9-47.5,5.9-47.5l-10.35-31.49a75.48853,75.48853,0,0,1,25.98-83.65l25.69-32.91,39.16-2.53,17.69,20.22,35.37,24-6.18,76.64s1.91,11.38,4.71,28.45c1.91,11.66,4.24,25.99,6.65,41.16C540.34271,597.84662,548.35272,651.12665,548.12274,662.35663Z" transform="translate(-185.44727 -180.82666)" fill="#3f3d56"/><path d="M583.10393,637.38725,574.04371,596.269l22.76695-8.45295,8.03223,43.81356a14.09487,14.09487,0,1,1-21.739,5.7576Z" transform="translate(-185.44727 -180.82666)" fill="#ffb6b6"/><path d="M490.922,389.12488l.67518-.09711a39.04013,39.04013,0,0,1,34.29754,12.23517c11.20544,12.18431,26.068,30.60935,35.044,50.80791,15.85277,35.67326,21.92242,51.90933,22.947,65.73827S581.197,528.437,587.29213,535.633s8.78392-3.4318,8.47686,11.191-5.88982,14.34128-.05091,18.0801,9.83392,1.35709,8.47686,11.19105.23073,12.49725.48689,15.9545,8.16984,25.81388,8.16984,25.81388-25.27615,6.04421-35.67325,15.8527c0,0-.46138-24.99455-5.50645-27.40173s-9.834-1.3571-8.2207-7.7338,9.06551-9.01463.02544-9.04007-63.3591-116.668-63.3591-116.668Z" transform="translate(-185.44727 -180.82666)" fill="#3f3d56"/><circle cx="267.57154" cy="135.60144" r="41.22389" fill="#ffb6b6"/><path d="M501.06939,303.03287c2.825,9.45627-2.89071,20.27112-10.30588,12.66324-3.24719-3.33161-3.106-7.48131-7.59286-8.681-3.62341-.973-7.52279.139-10.82784,1.89277-.59014.30945-3.23246-7.41581-3.79008-7.08119-.36808-.24593,1.3358,7.58439.94254,7.37089a13.09858,13.09858,0,0,0-9.64068-1.0844,12.8521,12.8521,0,0,1,6.35089,4.68107c-1.10614.74128-2.2266,1.48447-3.3726,2.143-2.1542,1.24315-21.80246.137-24.28015-.11053-11.88814-1.18741-5.995,6.38848-10.90046,17.28224q-.184.40864-.37191.82845l-.18927.69759c.31137-3.07045-9.18992-5.35868-8.63894-1.0364.39119,3.06882,3.047,9.89,4.53445,12.59952-14.25275-9.7388-28.1326-20.16965-16.3085-42.71014,1.51712-2.89216.23233-6.67691,1.90809-9.49679,1.67752-2.80536,5.17485-4.774,8.26887-3.7042a27.33188,27.33188,0,0,1,41.14685-25.01141c3.95636,2.32151,6.65647,10.24984,10.88535,8.437,8.1399-3.48934,11.7117-.16873,12.40433,5.53464.35205,2.899,6.09125-.57147,8.59725.9393,2.90292,1.753,3.4,5.42327,3.83563,8.955a13.08375,13.08375,0,0,0-7.04939,2.93374,12.80236,12.80236,0,0,1,7.70727,1.65311.7969.7969,0,0,1,.12622.07176C496.04331,298.6368,495.88607,299.93076,501.06939,303.03287Z" transform="translate(-185.44727 -180.82666)" fill="#2f2e41"/><path d="M971.98267,278.80334H838.93057a5.5439,5.5439,0,1,1,0-11.08772h133.0521a5.54389,5.54389,0,1,1,0,11.08772Z" transform="translate(-185.44727 -180.82666)" fill="#6c63ff"/><path d="M717.33663,385.345H584.28453a5.5439,5.5439,0,1,1,0-11.08772h133.0521a5.54389,5.54389,0,1,1,0,11.08772Z" transform="translate(-185.44727 -180.82666)" fill="#6c63ff"/><path d="M272.41594,469.924a124.0343,124.0343,0,0,1-13.78284-25.449,1.45982,1.45982,0,0,0-2.71211.00035,123.92047,123.92047,0,0,1-13.77967,25.44816,1.46787,1.46787,0,0,0,1.69251,2.24318l11.51531-4.166v71.28412H259.204V468.00054l11.51955,4.16662A1.46781,1.46781,0,0,0,272.41594,469.924Z" transform="translate(-185.44727 -180.82666)" fill="#3f3d56"/><path d="M913.69679,292.24843a1.45981,1.45981,0,0,0-2.7121.00036A123.9204,123.9204,0,0,1,897.205,317.69694a1.46786,1.46786,0,0,0,1.6925,2.24318l11.51532-4.166v71.28412h3.85486V315.774l11.51955,4.16662a1.46782,1.46782,0,0,0,1.69239-2.24318A124.03408,124.03408,0,0,1,913.69679,292.24843Z" transform="translate(-185.44727 -180.82666)" fill="#3f3d56"/><path d="M650.76049,403.22545a1.45981,1.45981,0,0,0-2.7121.00036A123.92088,123.92088,0,0,1,634.26872,428.674a1.46786,1.46786,0,0,0,1.6925,2.24318l11.51531-4.166v71.28412h3.85487V426.751l11.51955,4.16661a1.46782,1.46782,0,0,0,1.69239-2.24318A124.03408,124.03408,0,0,1,650.76049,403.22545Z" transform="translate(-185.44727 -180.82666)" fill="#3f3d56"/><path d="M1003.55273,524.414V493.575c-61.52966-45.26-95.64032-45.73632-115.646-36.62124-25.39451,11.57036-33.69657,41.154-43.24151,67.46019Z" transform="translate(-185.44727 -180.82666)" fill="#f2f2f2"/><path d="M508.45406,643.91489c-13.33628-10.41983-19.11658-38.59373-46.51028-46.25841-15.977-4.47037-29.45066.80031-52.04072,9.63717-29.76923,11.64519-42.88729,24.85383-60.50606,36.62124Z" transform="translate(-185.44727 -180.82666)" fill="#f2f2f2"/><path d="M567.778,589.94674c-17.85041,22.61382-26.567,45.13788-37.94177,53.96815h473.71655V589.94674Z" transform="translate(-185.44727 -180.82666)" fill="#f2f2f2"/><path d="M842.51929,530.19629c-7.289,19.05952-16.00791,35.44895-33.63739,40.47611-31.03506,8.8498-44.95519-30.25685-104.08144-36.62124-6.029-.649-58.36017-5.55679-104.08144,25.05664a140.40958,140.40958,0,0,0-28.18154,25.05664h431.01525V530.19629Z" transform="translate(-185.44727 -180.82666)" fill="#f2f2f2"/><circle cx="465.38504" cy="357.07936" r="28.91151" fill="#6c63ff"/><circle cx="727.38504" cy="263.07936" r="28.91151" fill="#6c63ff"/><path d="M324.0641,429.44938H191.012a5.5439,5.5439,0,1,1,0-11.08772H324.0641a5.54389,5.54389,0,1,1,0,11.08772Z" transform="translate(-185.44727 -180.82666)" fill="#6c63ff"/><path d="M272.10657,607.90842l19.90581-37.10194L272.40417,556.478l-19.64994,39.9753a14.09487,14.09487,0,1,0,19.35234,11.4551Z" transform="translate(-185.44727 -180.82666)" fill="#ffb6b6"/><path d="M437.0386,403.26912l-.62329-.27715a39.0401,39.0401,0,0,0-36.33259,2.442C385.98491,414.10985,366.67,427.796,352.537,444.79042c-24.96066,30.01429-43.89965,34.80976-48.64816,47.83824s-.30428,10.95844-8.12738,16.2247-7.51882-5.69225-11.20191,8.4625,1.76567,15.40275-4.87022,17.41188-9.83217-1.3697-11.20191,8.4625-3.62227,11.963-4.8094,15.22014-14.885,22.61721-14.885,22.61721,22.6781,12.69329,30.01429,24.96059c0,0,7.24446-23.9261,12.75414-24.86981s9.83224,1.3697,10.01478-5.20537-6.27083-11.14109,2.43513-8.706,72.95611-67.06966,72.95611-67.06966Z" transform="translate(-185.44727 -180.82666)" fill="#3f3d56"/><circle cx="72.38504" cy="400.07936" r="28.91151" fill="#f2f2f2"/></svg>