<?xml version="1.0" encoding="UTF-8"?><svg id="uuid-f6e8b6e7-fd20-44fa-9aad-7714a15e58d1" xmlns="http://www.w3.org/2000/svg" width="485.36914" height="546.10047" viewBox="0 0 485.36914 546.10047"><g><path d="M151.3095,330.92164l7.29925-9.73233c.20131-.26841,.31013-.59493,.31013-.93039,5.34731-17.33629,5.0729-35.17687,0-53.44844,0-1.64964-2.23421-2.15838-2.94842-.67132l-5.84529,12.17056c-.83251,1.73338-3.4514,.70156-2.87784-1.13384v-.00002c.04679-.14971,.07059-.30565,.07059-.46252,5.24661-12.43442,3.64166-29.07744,0-46.97199,0-1.71399-2.37012-2.16116-2.99466-.56511l-19.34327,49.43281c-.40749,1.04136-1.74977,1.32213-2.54049,.53142l-1.97003-1.97003c-.4963-.4963-.60257-1.26119-.24858-1.86726,3.19794-5.47518,17.09552-32.89875-.38257-70.34387-.14922-.31968-.40568-.58365-.72107-.74173l-11.96741-5.99804c-1.05424-.52838-2.29007,.2584-2.24436,1.43675,.28224,7.27636,.66382,28.16416-3.34281,43.21729-.47978,1.80255-3.14642,1.386-3.04958-.47679,.6114-11.76049-1.0275-30.32762-14.49525-44.20715-.31811-.32784-.76558-.50023-1.2214-.47012-4.25063,.28078-26.41951,2.13022-39.42657,10.78963-.64357,.42845-.84782,1.28302-.50207,1.97454l1.75628,3.51256c.59247,1.18493-.47778,2.51912-1.76302,2.19781l-6.07057-1.51764c-.60898-.15225-1.24511,.07897-1.62203,.58094-2.01611,2.68499-7.59085,11.2628-.26271,15.6313,.5364,.31976,.79701,.95355,.69301,1.56931-1.11872,6.6241-3.63096,42.0252,66.07075,58.3905,1.81316,.42571,1.47688,3.10156-.38503,3.05614l-29.93117-.73003c-1.49017-.03635-2.17304,1.8443-1.00113,2.76547,12.06477,9.48346,51.62181,39.17857,74.48203,39.65346,.35926,.00746,.7053-.11485,.98894-.33546l5.19784-4.04277c.10879-.08462,.20582-.18336,.28851-.29362Z" fill="#f2f2f2"/><path d="M185.04688,527.78711l-1.98438-.25586c.06152-.47266,5.9375-47.9707-8.05664-109.61328-12.90723-56.85156-45.8457-137.71729-129.47217-200.10449l1.19629-1.60303c37.15234,27.7168,67.54443,61.34424,90.33154,99.94775,18.22852,30.88086,31.65625,64.99414,39.91211,101.39258,14.05566,61.97266,8.13379,109.76074,8.07324,110.23633Z" fill="#e6e6e6"/></g><g><path d="M329.92156,211.47129l9.90854-7.05818c.27327-.19466,.47605-.47275,.57785-.7924,10.3563-14.89589,15.50904-31.97837,16.22039-50.92774,.50063-1.57184-1.47383-2.73462-2.60564-1.53444l-9.26311,9.82267c-1.31929,1.39898-3.50153-.37895-2.39802-1.95373v-.00002c.09003-.12846,.16003-.26981,.20763-.41929,8.77274-10.25577,12.29426-26.60094,14.25494-44.75673,.52016-1.63316-1.60248-2.77851-2.68193-1.44727l-33.43276,41.23125c-.7043,.86858-2.06848,.72876-2.58195-.26463l-1.27926-2.47498c-.32228-.62351-.19141-1.38458,.32982-1.85464,4.70872-4.24646,26.2733-26.1591,20.98325-67.14246-.04516-.34989-.20942-.67924-.46197-.92558l-9.58274-9.34701c-.84417-.8234-2.26049-.44877-2.57454,.68788-1.93928,7.01885-7.91467,27.03735-16.30063,40.16464-1.00418,1.57194-3.41865,.36576-2.76106-1.37978,4.15161-11.0203,8.22471-29.20915-.39577-46.52126-.20362-.40892-.57767-.70898-1.02113-.81862-4.13538-1.02243-25.82-5.98796-40.84157-1.68429-.74324,.21294-1.19721,.96521-1.07761,1.72905l.60747,3.8799c.20492,1.30885-1.21974,2.25531-2.34686,1.55912l-5.32371-3.28835c-.53406-.32988-1.21036-.30262-1.72183,.06129-2.73586,1.94652-10.65086,8.42798-4.99407,14.81438,.41406,.46747,.47004,1.15045,.18408,1.70561-3.07622,5.97219-16.21341,38.94132,45.23457,75.6877,1.59845,.95589,.46597,3.40348-1.29434,2.79516l-28.29803-9.77903c-1.40886-.48686-2.63026,1.09785-1.79318,2.33123,8.61776,12.69759,37.29744,52.9969,58.93543,60.38696,.34005,.11614,.70689,.10461,1.04411-.01952l6.17959-2.27468c.12934-.04761,.25175-.11225,.36401-.19221Z" fill="#f2f2f2"/><path d="M302.32324,409.29102l-1.8125-.8457c.20215-.43164,20.21582-43.90723,25.58789-106.88867,4.95508-58.0874-1.88965-145.13574-62.63867-229.95996l1.62695-1.16406c26.98828,37.68457,45.74219,78.94971,55.73926,122.64844,7.99609,34.95605,10.43848,71.53564,7.25879,108.72266-5.41406,63.31543-25.55859,107.05273-25.76172,107.4873Z" fill="#e6e6e6"/></g><path d="M485.1709,519.70605H0V0H485.1709V519.70605Zm-482.1709-3H482.1709V3H3V516.70605Z" fill="#e6e6e6"/><rect x="241.58594" y="1.5" width="2" height="516.70605" fill="#e6e6e6"/><rect x=".36914" y="518.20631" width="485" height="27.89416" fill="#e6e6e6"/><path d="M242.36914,261.85059h47.5c1.9317,0,3.5,1.5683,3.5,3.5h0c0,1.93171-1.5683,3.5-3.5,3.5h-47.5v-7h0Z" fill="#e6e6e6"/><g><path d="M339.11535,354.83057c-4.14929-6.04749-12.47256-7.69667-19.76396-6.90659-7.2914,.79009-14.30019,3.46872-21.61487,4.00182-6.02866,.43938-12.06541-.5934-18.10996-.62868-7.85936-.04588-15.72431,1.62142-22.88903,4.85228-23.46686,10.58213-36.81987,37.01414-38.10832,62.72435-1.28845,25.71021,7.54817,50.84787,18.22951,74.26974,6.17314,13.53636,13.84698,27.63777,27.15684,34.28518,10.58209,5.28507,22.98168,4.94696,34.80136,4.49108,17.59181-.6785,35.18362-1.35701,52.77543-2.03551,8.48185-.32714,16.96369-.65428,25.44554-.98142,12.10107-.46673,24.31568-.94972,36.03018-4.0196,27.18785-7.1248,50.04865-28.92489,58.45614-55.74384,8.6331-27.53865,2.26593-58.1809-11.83943-83.35919-8.63536-15.41425-21.18627-29.98375-38.21968-34.6775-9.16171-2.52461-18.85144-1.98032-28.33786-1.41627-17.28617,1.02782-34.57233,2.05564-51.8585,3.08346" fill="#6c63ff"/><g><path d="M334.73034,366.51489s-30.55075,7.96976-11.95464,7.96976c18.59611,0,40.82149,0,40.33514-3.98488s-32.36538-67.74296-36.35026-67.74296-26.56587,3.98488-17.26781,13.28293,25.23757,50.47515,25.23757,50.47515Z" fill="#3f3d56"/><g><path d="M342.13824,523.23992c-30.13867-22.10254-14.0957-133.58789-13.39746-138.32227l1.97852,.29102c-.16895,1.14844-16.57129,115.02441,12.60254,136.41797l-1.18359,1.61328Z" fill="#3f3d56"/><path d="M289.3482,513.40593c-23.45703-43.78711-14.23633-78.79492-2.37012-100.45312,12.83789-23.43262,31.49023-36.70605,31.67676-36.83789l1.15039,1.63672c-.18359,.12891-18.50391,13.18066-31.11035,36.22949-11.60156,21.21191-20.59961,55.51562,2.41699,98.47949l-1.76367,.94531Z" fill="#3f3d56"/><path d="M388.5523,522.75261l-1.89648-.63867c21.96191-65.27344-26.77441-142.86719-27.26855-143.64258l1.68555-1.07617c.125,.19629,12.61133,19.91895,22.17969,47.52344,8.84668,25.52246,16.94727,63.21387,5.2998,97.83398Z" fill="#3f3d56"/><path d="M445.85601,509.278l-1.99609-.11328c3.4043-59.95312-14.48047-93.83301-30.08398-111.69727-16.8457-19.28613-34.6416-24.52148-34.81934-24.57227l.54688-1.92383c.75,.21387,18.54688,5.45215,35.7793,25.18066,15.84766,18.14453,34.0166,52.49902,30.57324,113.12598Z" fill="#3f3d56"/><path d="M241.2525,457.14617c-5.15625-23.66113-2.24316-43.50879,8.65918-58.99121,17.95703-25.5,51.84961-30.16895,52.18945-30.21289l.25781,1.98242c-.33203,.04395-33.38184,4.61523-50.82129,29.39551-10.55859,15.00391-13.36133,34.31641-8.33008,57.40039l-1.95508,.42578Z" fill="#3f3d56"/><path d="M316.87359,366.86785c-.36133-.1377-36.375-13.63477-53.37305-.15137l-1.24219-1.56641c17.88965-14.19043,53.80859-.73047,55.32812-.15137l-.71289,1.86914Z" fill="#3f3d56"/><path d="M349.23101,363.9821c-.00684-.13574-.49414-13.67188,14.8877-18.4248l.58984,1.91016c-13.86133,4.28418-13.50195,15.92578-13.47949,16.41895l-1.99805,.0957Z" fill="#3f3d56"/><path d="M365.21636,372.52996l-1.60547-1.19238c.18262-.24512,18.5625-24.48145,44.94629-15.34961l-.6543,1.89062c-24.98535-8.65039-42.5127,14.41699-42.68652,14.65137Z" fill="#3f3d56"/></g></g></g><g><path d="M105.65367,438.02577c-2.2812-3.32478-6.85716-4.23147-10.86582-3.7971-4.00866,.43437-7.86195,1.90703-11.88341,2.20012-3.31443,.24156-6.63331-.32624-9.95648-.34564-4.32092-.02522-8.6449,.89143-12.58392,2.66768-12.9016,5.81784-20.24281,20.34961-20.95117,34.48455-.70836,14.13494,4.14983,27.95511,10.02221,40.83197,3.39387,7.44201,7.61279,15.19468,14.93027,18.84929,5.81782,2.90562,12.63485,2.71974,19.13307,2.4691,9.67161-.37303,19.34323-.74606,29.01484-1.11908,4.66314-.17985,9.32629-.35971,13.98943-.53956,6.65292-.2566,13.36826-.52214,19.80865-2.20989,14.94732-3.91707,27.51572-15.90231,32.13798-30.64682,4.7463-15.14018,1.24576-31.98666-6.50908-45.82916-4.74754-8.47444-11.64777-16.48445-21.0124-19.06498-5.03692-1.38798-10.36413-1.08874-15.57957-.77864-9.50358,.56507-19.00716,1.13015-28.51074,1.69522" fill="#6c63ff"/><g><path d="M103.24288,444.44957s-16.79617,4.38161-6.57241,4.38161c10.22376,0,22.44281,0,22.17543-2.1908s-17.79382-37.24368-19.98463-37.24368-14.60537,2.1908-9.49349,7.30268,13.8751,27.7502,13.8751,27.7502Z" fill="#3f3d56"/><g><path d="M107.31559,530.61376c-16.56962-12.15152-7.74953-73.44387-7.36565-76.04673l1.08775,.15999c-.09288,.63139-9.11055,63.23805,6.92862,74.99979l-.65072,.88695Z" fill="#3f3d56"/><path d="M78.29272,525.20724c-12.89619-24.07325-7.82684-43.31982-1.30304-55.22706,7.05801-12.88277,17.31268-20.18023,17.41523-20.25271l.63246,.89983c-.10094,.07087-10.17307,7.24646-17.10383,19.91823-6.3783,11.66187-11.32524,30.52135,1.32881,54.142l-.96963,.51971Z" fill="#3f3d56"/><path d="M132.83309,530.34585l-1.04265-.35113c12.07421-35.88599-14.72002-78.54544-14.99169-78.97173l.92668-.59166c.06872,.10792,6.93345,10.95103,12.19394,26.12741,4.86372,14.03172,9.31726,34.75368,2.91372,53.78711Z" fill="#3f3d56"/><path d="M164.33749,522.93779l-1.09741-.06228c1.87161-32.96099-7.96106-51.58745-16.53955-61.40886-9.26142-10.60312-19.04524-13.48141-19.14295-13.50933l.30066-1.05768c.41233,.11758,10.19669,2.99748,19.67072,13.84381,8.71271,9.97549,18.70163,28.86288,16.80854,62.19433Z" fill="#3f3d56"/><path d="M51.85069,494.27678c-2.8348-13.0084-1.23325-23.92024,4.76064-32.43215,9.87241-14.01937,28.50585-16.58626,28.69269-16.61042l.14174,1.08989c-.18254,.02416-18.35265,2.53736-27.9405,16.16104-5.8049,8.24884-7.34578,18.86645-4.57971,31.55755l-1.07486,.23409Z" fill="#3f3d56"/><path d="M93.42561,444.64362c-.19865-.0757-19.99823-7.49611-29.3434-.08322l-.68293-.86118c9.83536-7.80161,29.58286-.4016,30.41826-.08322l-.39193,1.02762Z" fill="#3f3d56"/><path d="M111.21505,443.0571c-.00376-.07463-.27167-7.51652,8.18495-10.12958l.32428,1.05016c-7.62067,2.35535-7.4231,8.75567-7.41075,9.0268l-1.09849,.05262Z" fill="#3f3d56"/><path d="M120.00347,447.75653l-.88265-.65555c.1004-.13476,10.20528-13.45939,24.71054-8.4389l-.35972,1.03943c-13.73643-4.75581-23.3726,7.92617-23.46817,8.05502Z" fill="#3f3d56"/></g></g></g></svg>