<?xml version="1.0" encoding="UTF-8"?><svg id="uuid-1073bb90-dea0-402c-8c84-c0654bffaef9" xmlns="http://www.w3.org/2000/svg" width="692.68042" height="520.45533" viewBox="0 0 692.68042 520.45533"><path d="M0,518.71813c0,.8714,.69976,1.57108,1.57114,1.57108H691.10938c.87134,0,1.57104-.69968,1.57104-1.57108,0-.87131-.69977-1.57108-1.57104-1.57108H1.57114c-.87139,0-1.57114,.69977-1.57114,1.57108Z" fill="#3f3d56"/><g><path d="M304.29297,474.42575h30.4252s3.5748,16,3.5748,16c0,0,23,27-3,27s-70,8-70-2,32-16,32-16l7-25Z" fill="#2f2e41"/><path d="M495.51763,398.06761l-.57295-30.4198,15.92984-3.87547s26.56209-23.50437,27.05171,2.49102c.48961,25.99539,9.31677,69.83694-.68145,70.02525s-16.59977-31.69302-16.59977-31.69302l-25.12739-6.52798Z" fill="#2f2e41"/><polygon points="405.21217 58.98072 411.41871 81.94498 383.48921 96.22007 372.93806 65.80793 405.21217 58.98072" fill="#ffb6b6"/><path d="M386.9557,5.87451c18.05762,0,32.6962,14.63858,32.6962,32.69619,0,18.05761-14.63858,32.69619-32.6962,32.69619-18.05762,0-32.6962-14.63858-32.6962-32.69619,0-18.05761,14.63858-32.69619,32.6962-32.69619Z" fill="#ffb6b6"/><path id="uuid-c568dbfd-4c4a-4b35-ab27-701aa2e6b471" d="M424.40257,205.06471c1.86678-3.1817,4.46861-5.86993,7.58765-7.83972l17.84571-34.17618,16.01365,8.9671-19.82695,33.70196c-.2991,3.6756-1.47411,7.22615-3.4267,10.35457-4.77977,7.89721-12.72511,11.83174-17.74925,8.79112-5.02413-3.04062-5.22326-11.90506-.44413-19.79885h.00003s-.00001-.00001-.00001-.00001Z" fill="#ffb6b6"/><path d="M365.29297,204.42575l47.8653-.31436s21.76772,40-2.23228,81l-4,84,100-5v36.2874s-130,17.7126-135,7.7126c-5-10-15-72.42797-15-72.42797l-10.09843,17.76911-9.90157,128.65886h-30.91732s-6.80315-139-6.80315-139l59.72047-111,6.36698-27.68564Z" fill="#2f2e41"/><polygon points="376.68434 77.76247 413.31714 75.32028 426.74916 116.83745 413.31714 204.75615 363.25232 213.3038 352.26248 121.72182 376.68434 77.76247" fill="#6c63ff"/><path d="M414.3892,81.42575l-3.51425,40.29607,32.96951,19.53749-12.5515,45.16644,24.76243,13.44603s25.64296-47.62263,20.75858-63.49684-62.42478-54.94919-62.42478-54.94919Z" fill="#6c63ff"/><path d="M405.32662,117.21315s.39205,71.43307-15.8208,73.32283-27.49046-2.64567-27.49046-2.64567" opacity=".1"/><path id="uuid-f96f2dc3-6612-4071-b51d-1ab126afe0e4" d="M299.11029,150.77772c3.67777,.28657,7.2334,1.45,10.36929,3.39284l38.53937,1.09423-1.05699,18.3229-38.97979-3.08326c-3.43599,1.33919-7.14277,1.83605-10.81017,1.44902-9.19249-.84281-16.2067-6.2659-15.6707-12.11398,.53599-5.84808,8.41985-9.90551,17.60897-9.06176v.00003s.00002-.00002,.00002-.00002Z" fill="#ffb6b6"/><path d="M319.11133,173.4736l-.40723-.1582,5.19531-21.3877,34.02539-.17676,6.36035-52.69824c1.24609-10.33398,10.03613-18.12695,20.44531-18.12695,5.84668,0,11.4375,2.49609,15.33984,6.84766,3.89746,4.34668,5.76953,10.16895,5.13477,15.97266-3.8877,35.56445-11.12207,78.65234-23.50781,81.95605-2.35547,.62793-5.11328,.90234-8.13672,.90234-20.41699,0-52.87988-12.52051-54.44922-13.13086Z" fill="#6c63ff"/><path d="M367.96247,21.60294c-2.34588,4.05543-4.78404,8.21824-8.49409,11.07922-3.71004,2.86099-9.05024,4.1328-13.13562,1.83947-4.01473-2.25367-5.74291-7.48698-4.75388-11.98352s4.24212-8.23355,8.07082-10.79053c3.8287-2.55698,8.23257-4.09113,12.58268-5.59896,6.64817-2.30439,13.34613-4.62111,20.31088-5.62138,18.99853-2.72856,39.17938,5.29483,51.11818,20.32328,5.637,7.09581,9.43265,15.44464,13.17175,23.69967,3.05646,6.74791,6.18125,13.85502,5.64055,21.24311-.39641,5.41646-2.64917,11.34987,.26698,15.9315,1.46926,2.3084,3.97503,3.70704,6.00834,5.53819s3.70203,4.66985,2.698,7.21531c-1.02742,2.60478-4.26467,3.54408-5.99227,5.74767-2.96103,3.77685-.43731,9.30311,2.54665,13.06186s6.64671,7.97379,5.70286,12.67926c-.68093,3.3947-3.76397,5.9227-7.0982,6.85574s-6.88932,.53838-10.29405-.09049c-16.63956-3.07343-32.19548-11.73989-43.56587-24.27126s-18.4884-28.854-19.93469-45.71309c-.63682-7.42331-.21289-14.9616-1.67513-22.26727-1.46225-7.30568-5.25065-14.66-11.91407-17.99315" fill="#2f2e41"/></g></svg>