<?xml version="1.0" encoding="UTF-8"?><svg id="uuid-d154a7a1-87d1-4cae-8f6b-7fed8f8cf52a" xmlns="http://www.w3.org/2000/svg" width="911.13151" height="637.1577" viewBox="0 0 911.13151 637.1577"><path d="m812.13151,475.14437H1.5V12.90702C1.5,6.6175,6.6175,1.5,12.90746,1.5h787.81658c6.28996,0,11.40746,5.1175,11.40746,11.40702v462.23736Z" fill="#fff" stroke="#b6b6b6" stroke-miterlimit="10" stroke-width="3"/><circle cx="22.57122" cy="17.07438" r="3.66456" fill="#b6b6b6" stroke-width="0"/><circle cx="35.39718" cy="17.07438" r="3.66456" fill="#b6b6b6" stroke-width="0"/><circle cx="48.22314" cy="17.07438" r="3.66456" fill="#b6b6b6" stroke-width="0"/><line x1="2.41614" y1="30.49423" x2="811.21537" y2="30.49423" fill="none" stroke="#b6b6b6" stroke-miterlimit="10" stroke-width="3"/><line x1="533.13151" y1="636.4077" x2="911.13151" y2="636.4077" fill="#fff" stroke="#090814" stroke-miterlimit="10" stroke-width="1.5"/><rect x="688.7636" y="596.13447" width="17.91452" height="23.6117" fill="#f0a0a3" stroke-width="0"/><path d="m703.62043,636.04186h-38.08005c-3.25475,0-6.52559-.7453-9.45895-2.15537l-7.02021-3.37456c-1.45152-.69772-2.38942-2.18922-2.38942-3.7997,0-1.8887,1.2713-3.55958,3.0916-4.0633l14.48304-4.00757,24.77691-13.02338.01853.09383c.46338,2.34672,1.1813,5.89202,1.27263,6.10707,2.54087,2.91076,5.15104,4.25208,7.75809,3.98778,4.5473-.46101,7.57028-5.71195,7.60031-5.76496l.02299-.04054.04639.00474c1.06483.1102,1.85248.53966,2.34115,1.27646,1.03731,1.56416.40452,3.97302.30038,4.33637,1.24233,1.21551,1.79982,8.00343,1.84294,8.55131,1.79627,1.90396,2.64989,3.73436,2.53676,5.44034-.09885,1.4915-.926,2.87663-2.45832,4.11707-1.84356,1.49248-4.21759,2.3144-6.68476,2.3144Z" fill="#090814" stroke-width="0"/><rect x="810.57068" y="587.39789" width="17.91452" height="23.6117" transform="translate(-134.75423 252.76946) rotate(-16.22019)" fill="#f0a0a3" stroke-width="0"/><path d="m833.04227,624.53878l-36.56428,10.63688c-3.12519.90915-6.47402,1.10716-9.6845.57259l-7.68339-1.27929c-1.58863-.2645-2.90583-1.43464-3.35568-2.98102-.52757-1.81353.2264-3.77301,1.83354-4.76513l12.78712-7.89359,20.15286-19.42591.044.08492c1.10045,2.12388,2.7801,5.32752,2.92785,5.50849,3.25279,2.08516,6.13374,2.64398,8.56319,1.66199,4.23752-1.71286,5.67343-7.59919,5.68746-7.65848l.01075-.04535.04587-.00841c1.05323-.19162,1.92949.00073,2.60451.5717,1.43294,1.21214,1.4982,3.70188,1.49969,4.07985,1.5324.8201,3.96377,7.18212,4.15821,7.69614,2.2566,1.32642,3.58752,2.84552,3.95543,4.5152.32171,1.45974-.08561,3.02078-1.21045,4.63988-1.35329,1.94803-3.40323,3.40037-5.77219,4.08953Z" fill="#090814" stroke-width="0"/><path d="m788.40319,353.41164h-85.85825s-37.11489,117.60348-35.33204,245.07718h63.95146l3.7968-147.97646,11.1085,153.7203,84.27392-4.85241-41.94039-245.96861Z" fill="#090814" stroke-width="0"/><polygon points="773.5962 313.22093 791.18438 353.65179 705.19757 353.85327 720.11074 315.89521 773.5962 313.22093" fill="#f0a0a3" stroke-width="0"/><path d="m763.22114,184.98939c0-16.08471-13.03926-29.12397-29.12407-29.12397s-29.12407,13.03926-29.12407,29.12397c0,13.0447,8.57691,24.08489,20.39852,27.7927l5.63016,37.2087,28.70208-23.91829s-6.20058-7.89779-9.52579-16.80322c7.85916-5.21568,13.04318-14.1407,13.04318-24.27989Z" fill="#f0a0a3" stroke-width="0"/><path d="m762.43641,213.73945l-34.30285,21.92755-15.83321,27.96148c-4.58448,8.09619-6.13283,17.56145-4.36707,26.69643l7.27462,37.6346h75.84792l-11.98443-78.51761c-1.52962-10.02151-5.34671-19.55611-11.15533-27.86455l-5.47965-7.8379Z" fill="#6c63ff" stroke-width="0"/><path d="m735.32606,230.27763l21.48886-10.14416c10.75638-2.01203,20.89282,5.71888,21.7972,16.62438l38.86927,261.75043,13.22708,27.87144-80.2282,44.26766-36.5484-253.90157-2.67427-39.22268,24.06846-47.2455Z" fill="#090814" stroke-width="0"/><path d="m792.86685,421.45266l-5.10395-27.76573-16.21149,2.98003,5.10395,27.76573c-2.43439,3.41665-3.52593,8.17018-2.61666,13.11661,1.59097,8.65497,8.68717,14.60375,15.84988,13.28708,7.16271-1.31666,11.67947-9.40016,10.0885-18.05513-.90926-4.94643-3.62006-9.00101-7.11023-11.32859Z" fill="#f0a0a3" stroke-width="0"/><polyline points="742.03872 287.70069 769.68475 421.68394 797.71371 415.90047 778.58478 281.33895" fill="#090814" stroke-width="0"/><path d="m772.57208,223.25511s-1.36,10.31825-13.96027,10.6552q-25.55971.68352-25.55971.68352s21.60677-52.58279,12.72237-46.65896c-8.8844,5.92383-32.57612-18.91069-32.57612-18.91069l-6.99062,13.11084s-16.7011-6.04781,1.80806-20.85739c0,0,22.08409-17.07369,45.52903-6.82091,23.44494,10.25279,19.02727,68.79839,19.02727,68.79839Z" fill="#090814" stroke-width="0"/><path d="m288.40339,238.26356h-71.74797c-2.58531,0-4.68852-2.10321-4.68852-4.68852v-15.39302c0-2.58531,2.10321-4.68852,4.68852-4.68852h71.74797c2.58531,0,4.68852,2.10321,4.68852,4.68852v15.39302c0,2.58531-2.10321,4.68852-4.68852,4.68852Z" fill="#6c63ff" stroke-width="0"/><polyline points="321.13151 221.87853 313.13151 229.87853 305.13151 221.87853" fill="none" stroke="#090814" stroke-miterlimit="10" stroke-width="1.5"/><path d="m439.40339,238.26356h-71.74797c-2.58531,0-4.68852-2.10321-4.68852-4.68852v-15.39302c0-2.58531,2.10321-4.68852,4.68852-4.68852h71.74797c2.58531,0,4.68852,2.10321,4.68852,4.68852v15.39302c0,2.58531-2.10321,4.68852-4.68852,4.68852Z" fill="#6c63ff" stroke-width="0"/><polyline points="472.13151 221.87853 464.13151 229.87853 456.13151 221.87853" fill="none" stroke="#090814" stroke-miterlimit="10" stroke-width="1.5"/><path d="m590.40339,238.26356h-71.74797c-2.58531,0-4.68852-2.10321-4.68852-4.68852v-15.39302c0-2.58531,2.10321-4.68852,4.68852-4.68852h71.74797c2.58531,0,4.68852,2.10321,4.68852,4.68852v15.39302c0,2.58531-2.10321,4.68852-4.68852,4.68852Z" fill="#6c63ff" stroke-width="0"/><polyline points="623.13151 221.87853 615.13151 229.87853 607.13151 221.87853" fill="none" stroke="#090814" stroke-miterlimit="10" stroke-width="1.5"/></svg>