<?xml version="1.0" encoding="UTF-8"?><svg id="a" xmlns="http://www.w3.org/2000/svg" width="660.67004" height="513.66798" viewBox="0 0 660.67004 513.66798"><g><polygon points="476.60745 95.10263 428.21881 95.10263 428.21881 17.88673 476.60745 33.32991 476.60745 95.10263" fill="#2f2e41"/><g><polygon points="485.1978 487.15109 475.21198 487.38674 469.64573 442.52423 484.38227 442.1755 485.1978 487.15109" fill="#a0616a"/><path d="M450.93775,507.9845h0c0,1.68692,1.19714,3.05448,2.67391,3.05448h19.82099s1.95055-7.84069,9.90323-11.21497l.54887,11.21497h10.22496l-1.23886-18.03316s2.73523-9.6478-2.94526-14.57949c-5.68054-4.93168-1.07952-4.24516-1.07952-4.24516l-2.23463-11.16116-15.45101,1.81694-.11361,17.52042-7.49826,17.39065-10.99814,5.4329c-.97889,.48354-1.61257,1.58531-1.61257,2.80356l-.00012,.00003Z" fill="#2f2e41"/></g><g><polygon points="434.0198 487.15109 424.03399 487.38674 418.46773 442.52423 433.20427 442.1755 434.0198 487.15109" fill="#a0616a"/><path d="M399.75975,507.9845h0c0,1.68692,1.19714,3.05448,2.67391,3.05448h19.82099s1.95055-7.84069,9.90323-11.21497l.54887,11.21497h10.22496l-1.23886-18.03316s2.73523-9.6478-2.94526-14.57949c-5.68054-4.93168-1.07952-4.24516-1.07952-4.24516l-2.23463-11.16116-15.45101,1.81694-.11361,17.52042-7.49826,17.39065-10.99814,5.4329c-.97889,.48354-1.61257,1.58531-1.61257,2.80356l-.00012,.00003Z" fill="#2f2e41"/></g><path d="M479.69608,179.52536l-63.83182,38.09318-14.41364,58.68409,7.20682,181.19999h31.60785l7.0001-174.50795,14.01236,174.50795h32.10236l8.11957-195.96586c2.23613-14.24153,.47134-28.82428-5.09748-42.12126l-16.70613-39.89014Z" fill="#2f2e41"/><path d="M465.28245,63.18672l-26.76818-2.05909-7.20682,14.41364-20.59091,5.14773-5.14773,63.83182c10.18344,26.45763,16.5761,51.74094,10.29545,73.09772l78.24545-4.11818-13.06388-35.32476s-.32021-13.06388,6.8866-30.56615c7.20682-17.50227-4.11818-62.80227-4.11818-62.80227l-16.47273-4.11818-2.05909-17.50227Z" fill="#6c63ff"/><g><path d="M381.73686,220.51045c.62296-2.53222,.62233-4.99519,.11609-7.04035l7.45817-23.7479-11.40402-3.21833-6.33773,24.43639c-1.39733,1.57685-2.54056,3.75842-3.16351,6.29065-1.42314,5.78485,.40744,11.20851,4.0887,12.11413,3.68126,.90562,7.81916-3.04974,9.2423-8.83457h0Z" fill="#a0616a"/><path d="M424.62706,81.80384s-14.01612-4.12988-21.26995,2.77035c-2.9915,2.84567-17.26128,49.80072-17.85302,51.62595-3.64944,11.25674-7.14982,22.6445-9.71904,32.22982-6.2611,23.35912-3.07751,36.52339-3.07751,36.52339l11.73878,2.94072,40.18074-126.09024Z" fill="#6c63ff"/></g><circle id="b" cx="449.61813" cy="38.77753" r="21.37413" fill="#a0616a"/><path d="M443.13532,6.95021c-4.59746,2.89805-7.96442,.82321-11.24823,2.2848-6.41596,2.85567-17.24781,22.91289-16.27108,31.31003,1.38332,11.89259,5.75455,12.38228,5.62411,20.91467-.20945,13.70108-1.29805,13.64424,1.50778,18.42823,3.12073,5.3209,20.79679,3.87619,24.07824-3.33932,.64738-1.42351-6.54357-.86368-14.48915-19.53917-3.98711-9.37141-1.36966-17.91088,0-21.62045,.32067-.86851,.46719-7.03431,1.15148-6.35002,6,6,9.36322,1.61404,12.98616,1.11071,7.43538-1.03298,13.0346,4.9656,15.29056,2.81206,1.67871-1.60251-.46267-5.83954,.35151-6.15137,.86808-.33248,3.74232,4.31568,5.62411,9.31494,1.21352,3.22392,1.82028,4.83586,1.75754,6.67864-.19378,5.69077-1.64488,21.82578-4.2159,26.56006-5.55215,10.22368,1.43895,14.08128,5.79769,13.336,3.52149-.60214,19.08894,1.76859,19.94095,.04809,.75901-1.53272-.97481-17.29877-2.79673-31.95602-2.18983-17.61713-10.96656-33.80629-24.72837-45.02108-.80704-.65767-1.40899-1.10891-1.73079-1.28132-.76224-.40838-8.62129-4.48915-14.41179-1.23027-2.1317,1.19972-1.78459,2.15685-4.21809,3.69082Z" fill="#2f2e41"/></g><g><polygon points="176.13661 503.83715 164.27749 503.83599 158.63604 458.09316 176.13899 458.09438 176.13661 503.83715" fill="#ffb6b6"/><path d="M135.50577,503.56813h0c-.36925,.62189-.56409,2.62907-.56409,3.35227h0c0,2.22294,1.80202,4.02503,4.02503,4.02503h36.72631c1.51648,0,2.7459-1.22935,2.7459-2.7459v-1.52903s1.81681-4.59554-1.92369-10.2598c0,0-4.64894,4.4352-11.59566-2.51151l-2.04852-3.71106-14.8285,10.84481-8.21921,1.01171c-1.7982,.22132-3.39246-.03435-4.31743,1.52348h-.00014Z" fill="#2f2e41"/></g><g><polygon points="226.13661 503.83715 214.27749 503.83599 208.63604 458.09316 226.13899 458.09438 226.13661 503.83715" fill="#ffb6b6"/><path d="M185.50577,503.56813h0c-.36925,.62189-.56409,2.62907-.56409,3.35227h0c0,2.22294,1.80202,4.02503,4.02503,4.02503h36.72631c1.51648,0,2.7459-1.22935,2.7459-2.7459v-1.52903s1.81681-4.59554-1.92369-10.2598c0,0-4.64894,4.4352-11.59566-2.51151l-2.04852-3.71106-14.8285,10.84481-8.21921,1.01171c-1.7982,.22132-3.39246-.03435-4.31743,1.52348h-.00014Z" fill="#2f2e41"/></g><polygon points="228.48848 215.03898 141.48848 214.03898 132.48848 271.03898 154.48848 468.03898 183.331 468.03898 189.98848 284.53898 201.98848 471.53898 231.51997 471.53898 244.98848 258.53898 228.48848 215.03898" fill="#2f2e41"/><g><path d="M597.32081,495.98067c2.06592,.12937,3.20768-2.43737,1.64468-3.93333l-.1555-.61819c.02047-.04951,.04105-.09897,.06178-.14839,2.08924-4.9818,9.16992-4.94742,11.24139,.04177,1.83859,4.42817,4.17942,8.86389,4.75579,13.54594,.25838,2.0668,.14213,4.17236-.31648,6.20047,4.30807-9.41059,6.57515-19.68661,6.57515-30.02077,0-2.59652-.14213-5.19301-.43275-7.78295-.239-2.11854-.56839-4.2241-.99471-6.31034-2.30575-11.2772-7.29852-22.01825-14.50012-30.98962-3.46197-1.89248-6.34906-4.85065-8.09295-8.39652-.62649-1.27891-1.11739-2.65462-1.34991-4.05618,.39398,.05168,1.48556-5.94866,1.18841-6.3168,.54906-.83317,1.53178-1.24733,2.13144-2.06034,2.98232-4.04341,7.0912-3.33741,9.23621,2.15727,4.58224,2.31266,4.62659,6.14806,1.81495,9.83683-1.78878,2.34682-2.03456,5.52233-3.60408,8.03478,.16151,.20671,.32944,.40695,.4909,.61366,2.96106,3.79788,5.52208,7.88002,7.68104,12.16859-.61017-4.76621,.29067-10.50822,1.82641-14.20959,1.74819-4.21732,5.02491-7.76915,7.91045-11.41501,3.46601-4.37924,10.57337-2.46806,11.18401,3.08332,.00591,.05375,.01166,.10745,.01731,.1612-.4286,.24178-.84849,.49867-1.25864,.76992-2.33949,1.54723-1.53096,5.17386,1.24107,5.60174l.06277,.00967c-.15503,1.54366-.41984,3.07444-.80734,4.57937,3.70179,14.31579-4.29011,19.5299-15.70147,19.76412-.25191,.12916-.49738,.25832-.74929,.38109,1.15617,3.25525,2.07982,6.59447,2.76441,9.97891,.61359,2.99043,1.03991,6.01317,1.27885,9.04888,.29715,3.83006,.27129,7.67959-.05168,11.50323l.01939-.13562c.82024-4.21115,3.10671-8.14462,6.4266-10.87028,4.94561-4.06264,11.93282-5.55869,17.26826-8.82425,2.56833-1.57196,5.85945,.45945,5.41121,3.43708l-.02182,.14261c-.79443,.32289-1.56947,.69755-2.31871,1.11733-.4286,.24184-.84848,.49867-1.25864,.76992-2.33949,1.54729-1.53096,5.17392,1.24107,5.6018l.06282,.00965c.0452,.00646,.08397,.01295,.12911,.01944-1.36282,3.23581-3.26168,6.23922-5.63854,8.82922-2.31463,12.49713-12.25603,13.68282-22.89022,10.04354h-.00648c-1.16259,5.06378-2.86128,10.01127-5.0444,14.72621h-18.02019c-.06463-.20022-.12274-.40692-.18089-.60717,1.6664,.10341,3.34571,.00649,4.98629-.29702-1.33701-1.64059-2.67396-3.29409-4.01097-4.93462-.03229-.0323-.05816-.0646-.08397-.09689-.67817-.8396-1.36282-1.67283-2.04099-2.51246l-.00036-.00102c-.04245-2.57755,.26652-5.14662,.87876-7.63984l.00057-.00035Z" fill="#f2f2f2"/><path d="M0,512.47798c0,.66003,.53003,1.19,1.19006,1.19H659.48004c.65997,0,1.19-.52997,1.19-1.19,0-.65997-.53003-1.19-1.19-1.19H1.19006c-.66003,0-1.19006,.53003-1.19006,1.19Z" fill="#ccc"/></g><polygon points="198.98848 65.53898 168.02391 65.53898 161.98848 77.53898 132.48848 91.08622 142.98848 168.53898 134.98848 219.53898 234.92155 219.53898 225.98848 160.53898 237.98848 89.53898 204.98848 76.53898 198.98848 65.53898" fill="#e6e6e6"/><path d="M242.05859,281.42976c-.06059-3.06782,.57674-5.89497,1.68649-8.1118l-2.4232-29.18856,13.92281-.74675,.95906,29.68929c1.19645,2.17128,1.94492,4.97106,2.00551,8.03888,.13842,7.00842-3.36482,12.76122-7.82471,12.8493-4.45989,.08807-8.18753-5.52192-8.32596-12.53033v-.00002Z" fill="#ffb6b6"/><path d="M225.85068,89.53898s13.1378-5,20.1378,6,13.02756,93,13.02756,93l1.97244,69h-24.08268l1.08268-64.68898-25-77.31102,12.8622-26Z" fill="#e6e6e6"/><circle cx="182.19489" cy="31.72919" r="27.96054" fill="#ffb6b6"/><path d="M173.42004,54.23214c.12943,2.73928,.19415,4.10893-.2267,4.27447-1.26679,.49829-17.57946-9.13559-19.50031-15.5487-.89589-2.99112-.13938-3.05075-.79331-11.56027-.62544-8.13874-1.32662-8.2036-.49765-10.21717,.92139-2.238,3.73517-4.99537,9.36273-10.51014,2.12783-2.08517,3.19174-3.12776,3.86335-3.66681,2.03553-1.63376,9.61858-7.72008,16.57198-6.93375,2.9146,.32961,2.41647,1.49329,13.30482,7.39793,.93783,.50858,2.19548,1.17994,3.93232,1.95076,4.22416,1.87472,6.84479,2.36074,8.22436,2.88354,8.36091,3.16845,5.90727,20.81824,5.18879,20.91941-.26188,.03688-.33296-2.25184-1.70498-2.44106-1.23499-.17032-2.0214,1.56761-3.1439,1.63086-3.06528,.17273,.33879-2.76164-7.1635-6.02074-2.91651-1.26696,5.19873,4.44557-2.5266,4.35285-12.08104-.14501-4.35448,.6239-8.94247,3.03394-3.34594,1.75761-16.80616-7.91495-16.25927-4.82419,.38574,2.18,1.96766,2.80764,1.73946,5.24985-.22109,2.36604-1.99922,4.91621-3.5677,5.00992-1.44562,.08636-2.23788-1.94234-2.7201-1.74821-.52454,.21117,.05157,2.75692,1.18263,5.37242,1.43588,3.32038,2.29296,3.3464,3.05023,5.9001,.43558,1.46882,.49896,2.81088,.62579,5.495Z" fill="#2f2e41"/><path d="M397.93721,217.03898H212.03975c-11.8833,0-21.55127-9.66797-21.55127-21.55127V104.59025c0-11.8833,9.66797-21.55127,21.55127-21.55127h185.89746c11.8833,0,21.55127,9.66797,21.55127,21.55127v90.89746c0,11.8833-9.66797,21.55127-21.55127,21.55127Z" fill="#fff"/><path d="M397.93721,217.03898H212.03975c-11.8833,0-21.55127-9.66797-25.55127-21.55127V104.59025c4-11.8833,13.66797-21.55127,25.55127-21.55127h185.89746c11.8833,0,21.55127,9.66797,21.55127,21.55127v90.89746c0,11.8833-9.66797,21.55127-21.55127,21.55127ZM212.03975,85.03898c-10.79787,0-19.55127,8.7534-19.55127,19.55127v90.89746c0,10.79787,8.7534,19.55127,19.55127,19.55127h137.08653c37.7554,0,68.3622-30.6068,68.3622-68.3622v-42.08653c0-10.79787-8.7534-19.55127-19.55127-19.55127H212.03975Z" fill="#3f3d56"/><path d="M310.84849,131.52942h-.00006c-3.7614-9.69222-14.66765-14.50009-24.35983-10.73873h-.00006c-9.60026,3.7257-14.4031,14.46064-10.8382,24.08297l-.28116,.1091,13.62115,35.09858,32.29699-12.53391c1.06779-.21103,2.13223-.51195,3.18214-.91944h.00006c9.69219-3.7614,14.50009-14.66768,10.73868-24.35988v-.00005c-3.7614-9.6922-14.66765-14.50007-24.35983-10.7387l.00013,.00006Z" fill="#6c63ff"/><path d="M264.5597,493.72241h-.00002c-1.45656-3.7532-5.67987-5.61499-9.43306-4.15845h-.00002c-3.71759,1.44273-5.57743,5.59971-4.19696,9.32584l-.10888,.04225,5.27463,13.59151,12.50663-4.85361c.41349-.08172,.82568-.19825,1.23225-.35604h.00002c3.75318-1.45656,5.61499-5.67989,4.15843-9.43308v-.00002c-1.45656-3.75319-5.67987-5.61498-9.43306-4.15843l.00005,.00002Z" fill="#e6e6e6"/><path d="M544.5597,493.72241h-.00002c-1.45656-3.7532-5.67987-5.61499-9.43306-4.15845h-.00002c-3.71759,1.44273-5.57743,5.59971-4.19696,9.32584l-.10888,.04225,5.27463,13.59151,12.50663-4.85361c.41349-.08172,.82568-.19825,1.23225-.35604h.00002c3.75318-1.45656,5.61499-5.67989,4.15843-9.43308v-.00002c-1.45656-3.75319-5.67987-5.61498-9.43306-4.15843l.00005,.00002Z" fill="#e6e6e6"/><circle cx="306.48848" cy="229.03898" r="24" fill="#6c63ff"/><path d="M199.09595,130.24349c-2.57521,1.66838-5.31372,2.6168-7.78256,2.84207l-23.52833,17.4431-7.97261-11.43853,24.72554-16.46272c1.21465-2.16116,3.19952-4.27285,5.77473-5.94123,5.88305-3.81141,12.61836-3.86623,15.04379-.12248,2.42543,3.74376-.3775,9.86837-6.26054,13.67978h-.00001Z" fill="#ffb6b6"/><path d="M143.98848,89.53898s-18-2-21,5-9,77-9,77l10,17,65.57874-49.63223-13.28034-13.28034-28.10549,13.28034-4.19291-49.36777Z" fill="#e6e6e6"/><g><path d="M412.21766,108.96751c2.13898,2.19999,4.59751,3.73446,6.95417,4.50389l19.05283,22.24486,10.31978-9.37574-20.4383-21.55572c-.70285-2.37739-2.16759-4.87808-4.30658-7.07807-4.8865-5.02587-11.44045-6.57928-14.63871-3.46969-3.19826,3.10959-1.82969,9.70462,3.05679,14.73047h.00001Z" fill="#a0616a"/><path d="M475.00619,81.55781s17.99336,2.05887,19.3591,9.55119-8.37412,77.07058-8.37412,77.07058l-13.53481,14.34604-52.8786-62.99034,15.90439-9.98926,24.44209,19.20599,15.08194-47.1942Z" fill="#6c63ff"/></g></svg>