<?xml version="1.0" encoding="UTF-8"?><svg id="uuid-bb1ec1f1-b000-45ad-b15d-ee23d830fdf5" xmlns="http://www.w3.org/2000/svg" width="731.67" height="626" viewBox="0 0 731.67 626"><path d="m104.69,452.78c-.66,0-1.19.53-1.19,1.19s.53,1.19,1.19,1.19" fill="#3f3d56"/><g><path id="uuid-5a548c1f-f959-4a2d-98dc-baaa7fe7081d" d="m376.76,311.7c2.62,10.5-.89,20.35-7.83,22.01-6.94,1.65-14.69-5.52-17.31-16.02-1.11-4.18-1.16-8.57-.14-12.78l-10.52-44.63,21.86-4.46,8.05,44.47c2.89,3.29,4.91,7.21,5.89,11.42,0,0,0,0,0,0Z" fill="#fdadb0"/><g><polygon points="285.09 566.9 286.44 596.15 285.09 604.24 289.81 613.69 326.91 617.73 328.94 600.2 309.38 590.08 308.81 573.55 285.09 566.9" fill="#fdadb0"/><path d="m324.22,610.99l-2.02,2.7-38.85-11.2s1.75,17.27,1.75,20.64,64.08,3.37,73.72,2.02,6.55-10.12,6.55-10.12l-39.99-18.93-1.16,14.88h0Z" fill="#2f2e43"/></g><g><polygon points="188.44 545.37 180.35 573.51 176.49 580.75 177.94 591.2 211.79 606.91 219.32 590.94 204.02 575.1 213.62 550.22 188.44 545.37" fill="#fdadb0"/><path d="m211.39,599.66l-2.78,1.91-33.23-23.04s-3.87,16.92-4.94,20.11,59.63,23.7,69.2,25.51,9.44-7.49,9.44-7.49l-31.83-30.73-5.86,13.73h0,0Z" fill="#2f2e43"/></g><polygon points="287.71 83.97 289.13 106.97 246.17 109.15 259.47 78.84 287.71 83.97" fill="#fdadb0"/><path d="m290.22,103.53c-11.51,5.14-29.93,3.73-50.8,0l-3.26,144.6s65.29,13.13,87.74-11.09l-11.81-118.14-21.86-15.36s0,0,0,0Z" fill="#6c63ff"/><polygon points="316.81 240.58 224.63 249.69 179.15 558.54 214 558.54 273.68 346.91 278.41 586.74 310.31 586.74 337.48 293.15 316.81 240.58" fill="#2f2e43"/><path d="m252.52,94.67l-30.97,18.33c-11.73,6.94-17.26,20.96-13.43,34.04l23.93,81.75s-38.97,66.96-26.31,72.86c28.46,13.27,70.93,10.04,70.93,10.04l-9.49-160.31-14.66-56.71h0s0,0,0,0Z" fill="#e0e1e2"/><path d="m288.88,102.92l35.02,13.6,8.27,101.01,23.16,81.38c-39.23,14.32-35.57,7.65-35.57,7.65l-6.5-140.42-24.38-63.22h0s0,0,0,0Z" fill="#e0e1e2"/><path d="m340.03,297.2l-.12-.55-35.79-165.55c-1-4.63.28-9.26,3.51-12.72,3.23-3.46,7.77-5.05,12.45-4.37,5.78.84,10.4,5.05,11.78,10.72l39.32,161.61-31.15,10.87h0Z" fill="#e0e1e2"/><circle cx="269.07" cy="55.23" r="34.85" fill="#fdadb0"/><path d="m285.65,10.07c7.68,2.7,12.07,4.24,16.09,8.12,6.8,6.55,7.92,15.3,8.96,23.43.82,6.36,1.87,14.58-1.86,23.98-1.27,3.21-7.44,17.49-19.24,19.3-2.32.35-7.76.45-6.19-.71,14.52-10.72,20.71-17.19,20.2-33.7-.32-10.26-16-21.34-25.31-23.33-3.92-.84-9.14-.07-12.89,3-7.83,6.42-7.49,32.99-15.74,38.54-3.39,2.28-1.13-13.79-3.52-11.19-4.72,5.14-1.69,13.02-.84,16.02,4.02,14.23,11.6,15.62,15.53,27.78,4.24,13.12-1.1,25.47-2.36,28.4-2.2,5.1-5.98,13.84-14.61,18.04-10.96,5.33-19.6-1.61-24.69,4.34-2.85,3.32-1.31,6.84-6.45,17.18-1.68,3.37-2.52,5.06-3.26,5-3.52-.28-9.21-28.44,0-54.66,3.87-11,7.65-21.78,17.8-30.21,5.37-4.46,9.87-6.06,11.15-11.27,1.83-7.44-5.77-10.61-7.29-22.34-1.04-8.02-1.77-19.5,1.06-26.85,2.68-6.95,5-12.98,11.08-18.44,1.46-1.31,13.24-10.24,25.74-10.49,5.75-.12,9.98,7.73,16.65,10.07h0Z" fill="#2f2e43"/><path d="m0,624.38c0,.66.53,1.19,1.19,1.19h729.29c.66,0,1.19-.53,1.19-1.19s-.53-1.19-1.19-1.19H1.19c-.66,0-1.19.53-1.19,1.19Z" fill="#3f3d58"/><path d="m511.85,179.43h0c-.68,17.58.56,36.67,0,56.76,0,2.43-1.88,4.4-4.21,4.4h-47.41c-1.89,0-3.48-1.3-4.02-3.08l-117.04-22.53c-.15,1.63-1.45,2.92-3.05,2.92h-12.43v6.61c0,2.12-1.64,3.83-3.67,3.83h-23.68c-2.03,0-3.67-1.72-3.67-3.83v-49.24c0-1.67,1.03-3.08,2.45-3.6-.25-.4-.39-.85-.39-1.31,0-1.79,2.01-3.24,4.48-3.24s4.48,1.45,4.48,3.24c0,.38-.09.74-.26,1.08h2.33v-8.38c0-1.34,1.04-2.42,2.32-2.42h7.08c1.28,0,2.32,1.09,2.32,2.42v8.38h2.53c2.03,0,3.67,1.72,3.67,3.83v9.49h12.43c1.44,0,2.63,1.03,2.97,2.42l116.92-7.15v-.6c0-2.43,1.88-4.4,4.21-4.4h47.41c2.32,0,4.21,1.97,4.21,4.4h0s0,0,0,0Z" fill="#3f3d56"/><path id="uuid-db46df68-56b6-4ea4-b34e-01cd8d3a0522" d="m287.34,211.9c10.76-1.13,20.03,3.71,20.7,10.82.67,7.11-7.51,13.78-18.28,14.91-4.3.51-8.64-.05-12.68-1.64l-45.66,4.2-1.37-22.27,45.16-1.78c3.66-2.4,7.82-3.86,12.13-4.25,0,0,0,0,0,0Z" fill="#fdadb0"/><path d="m231.71,114.05h0c-11.05-1.56-21.42,5.71-23.72,16.63-8.01,38.11-22.4,119.28.19,120.64,29.54,1.77,57.89-5.32,57.89-5.32l-7.09-40.76-23.04-2.36,13.55-63.39c2.57-12.04-5.6-23.73-17.79-25.44h0Z" fill="#e0e1e2"/></g></svg>